<svg id="cross" width="15" height="22" viewBox="0 0 15 22" fill="none" xmlns="http://www.w3.org/2000/svg">
<path d="M6.23209 0.491457C6.23907 0.763327 6.23558 1.02125 6.22512 1.06657L6.20421 1.15022H5.26312H4.32203V1.96931V2.78841L5.27358 2.79538L6.22164 2.80584V3.79921V4.79258L3.11256 4.80303L0 4.81001V5.64653V6.48305L3.10559 6.49002L6.2077 6.50048L6.21467 10.2892C6.21815 12.3771 6.21815 14.0815 6.21118 14.0815C6.20073 14.0815 4.56602 12.7221 4.43706 12.6071L4.35689 12.5374V13.9699V15.4025L5.28404 16.1797L6.21118 16.957L6.2077 18.9821C6.20421 20.094 6.21118 21.0281 6.22164 21.056C6.23558 21.0978 6.375 21.1048 7.05816 21.0943L7.87726 21.0839V19.728C7.87726 18.9786 7.88423 18.3686 7.89468 18.3686C7.91211 18.3686 9.5015 19.6827 9.68275 19.843L9.75943 19.9127V18.4802V17.0442L8.8288 16.2669L7.89468 15.4896V10.9968V6.50048L11.0072 6.49002L14.1163 6.48305L14.1094 5.6535L14.0989 4.82743L10.9863 4.81698L7.87726 4.81001L7.88423 3.80618L7.89468 2.80584L8.84623 2.79538L9.79429 2.78841V1.96931V1.15022L8.84623 1.14325L7.89468 1.13279L7.88423 0.564651L7.87726 0H7.0477H6.22164L6.23209 0.491457Z" fill="#454545"/>
</svg>
