<svg id="mail" width="16" height="11" viewBox="0 0 16 11" fill="none" xmlns="http://www.w3.org/2000/svg">
<path d="M15.8665 0.76136L11.2701 5.32813L15.8665 9.89489C15.9496 9.72122 16 9.52923 16 9.32422V1.33203C16 1.12699 15.9496 0.935027 15.8665 0.76136ZM14.6679 0H2.17645C1.97141 0 1.77945 0.0504101 1.60578 0.133499L7.48042 5.97854C7.99986 6.49797 8.84454 6.49797 9.36397 5.97854L15.2386 0.133499C15.0649 0.0504101 14.873 0 14.6679 0ZM0.977921 0.76136C0.894831 0.935027 0.844421 1.12699 0.844421 1.33203V9.32422C0.844421 9.52926 0.894831 9.72125 0.977921 9.89489L5.57429 5.32813L0.977921 0.76136Z" fill="#754C17"/>
<path d="M10.6423 5.95593L9.99189 6.60635C9.12639 7.47184 7.71808 7.47184 6.85259 6.60635L6.2022 5.95593L1.60583 10.5227C1.7795 10.6058 1.97146 10.6562 2.17651 10.6562H14.668C14.873 10.6562 15.065 10.6058 15.2387 10.5227L10.6423 5.95593Z" fill="#754C17"/>
</svg>
