<svg id="ok" width="21" height="19" viewBox="0 0 21 19" fill="none" xmlns="http://www.w3.org/2000/svg">
<path d="M10.4538 0.59375C8.23846 0.59375 6.4123 2.375 6.4123 4.60156C6.4123 6.79844 8.20852 8.60938 10.4538 8.60938C12.6991 8.60938 14.4953 6.82812 14.4953 4.60156C14.4953 2.375 12.6691 0.59375 10.4538 0.59375ZM10.4538 5.9375C9.70537 5.9375 9.10663 5.34375 9.10663 4.60156C9.10663 3.85938 9.70537 3.26562 10.4538 3.26562C11.2022 3.26562 11.801 3.85938 11.801 4.60156C11.801 5.34375 11.2022 5.9375 10.4538 5.9375Z" fill="#D3BA7B"/>
<path d="M15.4233 11.3107C14.4055 11.8747 13.2978 12.2607 12.1901 12.4388L15.3335 16.2685C15.6928 16.7138 15.7826 17.3372 15.4533 17.8122C14.9443 18.5841 13.8666 18.6138 13.3277 17.931L10.4239 14.3982L7.54991 17.931C7.28047 18.2575 6.92123 18.406 6.53205 18.406C6.14287 18.406 5.75369 18.2278 5.48426 17.8716C5.15495 17.4263 5.18489 16.6841 5.54413 16.2388L8.65758 12.3794C7.54991 12.1716 6.44224 11.8153 5.45432 11.2513C4.82564 10.895 4.61608 10.1232 4.97533 9.47003C5.33457 8.84659 6.14287 8.63878 6.77155 8.99503C9.04676 10.2716 11.8908 10.2716 14.1959 9.02472C14.8246 8.66847 15.6329 8.90597 15.9622 9.52941C16.2915 10.1825 16.052 10.9544 15.4233 11.3107Z" fill="#D3BA7B"/>
</svg>
