<svg id="phone" width="13" height="13" viewBox="0 0 13 13" fill="none" xmlns="http://www.w3.org/2000/svg">
<path d="M10.759 9.04819C9.97367 8.3765 9.17666 7.96962 8.40096 8.64031L7.93777 9.04566C7.59888 9.3399 6.96879 10.7148 4.53262 7.9123C2.09696 5.11339 3.54638 4.6776 3.88578 4.38589L4.3515 3.98003C5.12314 3.30782 4.83194 2.46161 4.2754 1.59053L3.93956 1.06292C3.38048 0.193871 2.7717 -0.376868 1.99803 0.294322L1.57999 0.659595C1.23806 0.908691 0.282258 1.71838 0.0504115 3.25659C-0.228617 5.10223 0.65159 7.21574 2.6682 9.53472C4.68228 11.8547 6.65424 13.02 8.52221 12.9997C10.0746 12.983 11.0122 12.15 11.3054 11.8471L11.7249 11.4813C12.4966 10.8106 12.0172 10.1278 11.2313 9.45456L10.759 9.04819Z" fill="#754C17"/>
</svg>
