<svg width="54" height="44" viewBox="0 0 54 44" fill="none" xmlns="http://www.w3.org/2000/svg">
<path d="M53.9885 12.3046C53.9885 5.73094 48.2336 0.402267 41.1341 0.402267C34.0346 0.402267 28.2796 5.73094 28.2796 12.3046C28.2796 18.8782 34.0346 24.2068 41.1341 24.2068C42.5932 24.2068 43.9898 23.9713 45.2973 23.5563C42.4045 38.9182 29.4668 48.8249 41.46 40.6715C54.7587 31.6303 54.0028 12.6683 53.9879 12.3208C53.9879 12.3154 53.9885 12.3106 53.9885 12.3046ZM25.7089 12.3046C25.7089 5.73094 19.9539 0.402267 12.8544 0.402267C5.75486 0.402267 -0.000110626 5.73094 -0.000110626 12.3046C-0.000110626 18.8782 5.75497 24.2068 12.8545 24.2068C14.3136 24.2068 15.7102 23.9713 17.0177 23.5563C14.1249 38.9182 1.18715 48.8249 13.1804 40.6715C26.4791 31.6303 25.7232 12.6683 25.7083 12.3208C25.7083 12.3154 25.7089 12.3106 25.7089 12.3046Z" fill="#FDDD89"/>
</svg>
