<svg id="triangle-play" width="96" height="96" viewBox="0 0 96 96" fill="none" xmlns="http://www.w3.org/2000/svg">
<path d="M94.9776 47.6472C94.9776 73.7614 73.8079 94.931 47.6938 94.931C21.5797 94.931 0.409973 73.7614 0.409973 47.6472C0.409973 21.5331 21.5797 0.363403 47.6938 0.363403C73.8079 0.363403 94.9776 21.5331 94.9776 47.6472Z" fill="white"/>
<path fill-rule="evenodd" clip-rule="evenodd" d="M47.6938 0.363403C21.6215 0.363403 0.409973 21.5749 0.409973 47.6472C0.409973 73.7195 21.6215 94.931 47.6938 94.931C73.7661 94.931 94.9776 73.7195 94.9776 47.6472C94.9776 21.5749 73.7661 0.363403 47.6938 0.363403ZM63.061 49.6947L41.7833 61.9791C40.2088 62.8917 38.237 61.7521 38.237 59.9317V35.363C38.237 33.5426 40.2088 32.4078 41.7833 33.3156L63.061 45.6C64.6356 46.5125 64.6356 48.7869 63.061 49.6947Z" fill="#F6B308"/>
<path d="M94.9776 47.6472C94.9776 73.7614 73.8079 94.931 47.6938 94.931M94.9776 47.6472C94.9776 21.5331 73.8079 0.363403 47.6938 0.363403M94.9776 47.6472C94.9776 73.7195 73.7661 94.931 47.6938 94.931M94.9776 47.6472C94.9776 21.5749 73.7661 0.363403 47.6938 0.363403M47.6938 94.931C21.5797 94.931 0.409973 73.7614 0.409973 47.6472M47.6938 94.931C21.6215 94.931 0.409973 73.7195 0.409973 47.6472M0.409973 47.6472C0.409973 21.5331 21.5797 0.363403 47.6938 0.363403M0.409973 47.6472C0.409973 21.5749 21.6215 0.363403 47.6938 0.363403M63.061 49.6947L41.7833 61.9791C40.2088 62.8917 38.237 61.7521 38.237 59.9317V35.363C38.237 33.5426 40.2088 32.4078 41.7833 33.3156L63.061 45.6C64.6356 46.5125 64.6356 48.7869 63.061 49.6947Z" stroke="#956C02" stroke-width="0.2"/>
</svg>
