<svg id="viber" width="20" height="20" viewBox="0 0 20 20" fill="none" xmlns="http://www.w3.org/2000/svg">
<g clip-path="url(#clip0_1_4746)">
<path d="M10.6799 11.2996C10.4512 11.5285 10.0802 11.5285 9.85135 11.2996L7.18869 8.63693C7.07883 8.52707 7.01703 8.37799 7.01703 8.22266C7.01703 8.06717 7.07883 7.91824 7.18869 7.80823L7.66202 7.33505L6.27179 5.94482L5.13288 7.08374C4.74958 7.46704 4.74973 8.09067 5.13288 8.47397L10.0143 13.3557C10.1988 13.5402 10.4457 13.6417 10.7095 13.6417C10.9733 13.6417 11.2202 13.54 11.4047 13.3556L12.5436 12.2168L11.1534 10.8264L10.6799 11.2996Z" fill="#754C17"/>
<path d="M19.1595 7.05902C19.1595 5.18051 18.4235 3.40988 17.0865 2.07306C15.7497 0.736237 13.979 0 12.1007 0H7.91809C6.03989 0 4.2691 0.736237 2.93243 2.07291C1.59561 3.40973 0.859375 5.18051 0.859375 7.05887V10.3465C0.859375 11.8011 1.3031 13.2005 2.14264 14.3933C2.8833 15.4456 3.87939 16.2674 5.04074 16.7886V18.6771C5.04074 19.6535 5.58746 19.9998 6.0556 20C6.39008 20 6.7247 19.8349 7.05032 19.5094L9.15405 17.4054H12.1008C13.9792 17.4054 15.7498 16.6692 17.0866 15.3323C18.4235 13.9955 19.1597 12.2249 19.1597 10.3465L19.1595 7.05902ZM13.7866 12.6311L12.2333 14.1843C11.8274 14.5901 11.2863 14.8134 10.7095 14.8134C10.1328 14.8134 9.59167 14.59 9.18579 14.1843L4.3042 9.30252C3.4642 8.46222 3.4642 7.09518 4.3042 6.25504L5.85754 4.70184C5.96741 4.59183 6.11633 4.53018 6.27182 4.53018C6.42715 4.53018 6.57623 4.59183 6.6861 4.70184L8.90503 6.92078C9.01489 7.03064 9.07654 7.17972 9.07654 7.33505C9.07654 7.49039 9.01489 7.63947 8.90488 7.74933L8.4317 8.2225L10.2658 10.0566L10.7391 9.58328C10.968 9.35455 11.339 9.35455 11.5677 9.58344L13.7866 11.8024C13.8966 11.9122 13.9583 12.0613 13.9583 12.2166C13.9583 12.3721 13.8966 12.5212 13.7866 12.6311ZM9.56573 5.68832C9.56573 5.36484 9.82803 5.10239 10.1517 5.10239C12.1819 5.10239 13.8336 6.754 13.8336 8.78403C13.8336 9.10767 13.5713 9.36996 13.2477 9.36996C12.9242 9.36996 12.6617 9.10767 12.6617 8.78403C12.6617 7.40021 11.5358 6.27426 10.1517 6.27426C9.82803 6.27426 9.56573 6.01196 9.56573 5.68832ZM15.7579 9.37027C15.4343 9.37027 15.172 9.10782 15.172 8.78433C15.1721 7.44324 14.6498 6.18256 13.7016 5.23422C12.7533 4.28604 11.4926 3.76373 10.1515 3.76373C9.82803 3.76373 9.56558 3.50143 9.56558 3.1778C9.56558 2.85431 9.82803 2.59186 10.1515 2.59186C11.8056 2.59186 13.3606 3.23608 14.5302 4.40567C15.6999 5.57526 16.344 7.13028 16.3438 8.78433C16.3438 9.10782 16.0815 9.37027 15.7579 9.37027Z" fill="#754C17"/>
</g>
<defs>
<clipPath id="clip0_1_4746">
<rect width="20" height="20" fill="white"/>
</clipPath>
</defs>
</svg>
