<?xml version="1.0" encoding="utf-8"?><svg viewBox="0 0 502.66 502.66" xmlns="http://www.w3.org/2000/svg" xmlns:xlink="http://www.w3.org/1999/xlink"><style>:root>svg{display:none}:root>svg:target{display:block}</style><svg viewBox="0 0 35 14" id="arrow" xmlns="http://www.w3.org/2000/svg"><path d="M6.863 1.616L1.693 6.92l5.17 5.305m26.66-5.305H2.38"/></svg><svg viewBox="0 0 15 22" id="cross" xmlns="http://www.w3.org/2000/svg"><path d="M6.232.491c.007.272.004.53-.007.576l-.02.083H4.321v1.638l.952.007.948.01v1.988l-3.11.01L0 4.81v1.673l3.106.007 3.102.01.007 3.79c.003 2.087.003 3.792-.004 3.792-.01 0-1.645-1.36-1.774-1.475l-.08-.07v2.865l.927.778.927.777-.003 2.025c-.004 1.112.003 2.046.014 2.074.014.042.153.049.836.038l.82-.01v-1.356c0-.75.006-1.36.017-1.36a91.52 91.52 0 011.788 1.475l.076.07v-2.869l-.93-.777-.934-.777V6.5l3.112-.01 3.11-.007-.008-.83-.01-.826-3.113-.01-3.109-.007.007-1.004.01-1 .952-.01.948-.008V1.15l-.948-.007-.951-.01-.01-.568L7.876 0H6.222l.01.491z"/></svg><svg viewBox="0 0 502.664 502.664" id="icon" xmlns="http://www.w3.org/2000/svg"><path d="M153.821 358.226L0 274.337v-46.463l153.821-83.414v54.574L46.636 250.523l107.185 53.431v54.272zm26.273 29.358L282.103 115.08h32.227L212.084 387.584h-31.99zm168.749-29.358v-54.272l107.164-52.999-107.164-52.59v-53.927l153.821 83.522v46.183l-153.821 84.083z"/></svg><svg viewBox="0 0 16 11" id="mail" xmlns="http://www.w3.org/2000/svg"><path d="M15.867.761L11.27 5.328l4.597 4.567a1.32 1.32 0 00.133-.57V1.331c0-.205-.05-.397-.133-.57zM14.667 0H2.178c-.206 0-.398.05-.571.133L7.48 5.98c.52.519 1.365.519 1.884 0L15.239.133A1.317 1.317 0 0014.668 0zM.978.761a1.317 1.317 0 00-.133.571v7.992c0 .205.05.397.134.57l4.596-4.566L.978.761z"/><path d="M10.642 5.956l-.65.65a2.222 2.222 0 01-3.14 0l-.65-.65-4.596 4.567c.173.083.365.133.57.133h12.492c.205 0 .397-.05.57-.133l-4.596-4.567z"/></svg><svg viewBox="0 0 21 19" id="ok" xmlns="http://www.w3.org/2000/svg"><path d="M10.454.594c-2.216 0-4.042 1.781-4.042 4.008 0 2.196 1.797 4.007 4.042 4.007s4.041-1.78 4.041-4.007c0-2.227-1.826-4.008-4.041-4.008zm0 5.343a1.336 1.336 0 110-2.671 1.336 1.336 0 110 2.671zm4.969 5.373a9.994 9.994 0 01-3.233 1.129l3.144 3.83c.359.445.449 1.068.12 1.543-.51.772-1.587.802-2.126.119l-2.904-3.533-2.874 3.533c-.27.326-.629.475-1.018.475a1.31 1.31 0 01-1.048-.534c-.329-.446-.3-1.188.06-1.633l3.114-3.86c-1.108-.207-2.216-.564-3.204-1.128-.628-.356-.838-1.128-.479-1.781a1.323 1.323 0 011.797-.475c2.275 1.277 5.119 1.277 7.424.03a1.29 1.29 0 011.766.504 1.34 1.34 0 01-.539 1.782z"/></svg><svg viewBox="0 0 13 13" id="phone" xmlns="http://www.w3.org/2000/svg"><path d="M10.759 9.048c-.785-.671-1.582-1.078-2.358-.408l-.463.406c-.34.294-.97 1.669-3.405-1.134-2.436-2.799-.987-3.234-.647-3.526l.465-.406c.772-.672.48-1.518-.076-2.39l-.335-.527C3.38.193 2.772-.377 1.998.294L1.58.66A3.924 3.924 0 00.05 3.257c-.279 1.845.602 3.959 2.618 6.278C4.682 11.855 6.654 13.02 8.522 13a3.934 3.934 0 002.783-1.153l.42-.366c.772-.67.292-1.353-.494-2.026l-.472-.407z"/></svg><svg viewBox="0 0 151 152" id="play-frame" xmlns="http://www.w3.org/2000/svg"><path d="M70.53.185c-1.389.322-2.255 1.12-2.516 2.312-.07.297-.108.368-.185.329-.484-.2-1.26-.187-1.77.039-.42.18-.88.663-.975 1.03-.19.722.37 1.746 1.395 2.538 1.427 1.108 3.84 1.978 7.7 2.77l1.414.297 1.42-.297c3.854-.792 6.268-1.662 7.694-2.77 1.026-.792 1.586-1.816 1.395-2.538-.095-.367-.554-.85-.974-1.03-.51-.226-1.287-.239-1.77-.039-.077.039-.115-.032-.186-.329-.229-1.056-.948-1.816-2.07-2.19-.426-.142-.63-.167-1.241-.174-.822-.006-1.083.052-1.593.361-.821.502-.949 1.61-.248 2.203.35.296.618.38 1.236.387.49.006.605-.013.802-.142.248-.155.44-.477.44-.74 0-.213-.287-.555-.555-.664-.286-.123-.522-.11-.77.038-.115.071-.223.13-.249.13-.07 0 .032-.523.14-.684.172-.27.625-.431 1.083-.4.471.04.828.213 1.14.574.917 1.024.612 2.674-.79 4.2-.388.432-1.242 1.14-1.356 1.134-.045 0-.007-.051.083-.11.363-.244.834-.76.987-1.062.376-.767.05-1.398-.733-1.398-.356 0-.63.154-.738.425-.077.187-.077.251 0 .431.146.368.7.484.866.18.05-.102.032-.167-.102-.321l-.166-.2h.223c.637 0 .56.902-.12 1.456-.377.296-.39.303-.593.148-.497-.374-1.624-.193-2.23.354-.14.123-.152.123-.108.013.204-.58.204-1.256.007-1.655-.153-.297-.79-.96-.924-.96-.133 0-.77.663-.923.96-.198.4-.198 1.076.006 1.655.045.11.032.11-.108-.013-.605-.547-1.733-.728-2.23-.354-.203.155-.216.148-.592-.148-.681-.554-.758-1.456-.12-1.456h.222l-.165.2c-.134.154-.153.219-.102.322.165.303.72.187.866-.18.185-.439-.178-.857-.739-.857-.783 0-1.108.631-.732 1.398.153.302.624.818.987 1.063.09.058.127.109.083.109-.115.006-.968-.702-1.357-1.134-.643-.695-1.044-1.417-1.248-2.21-.242-.96.114-1.893.91-2.363.574-.335 1.49-.239 1.771.2.108.16.21.682.14.682-.025 0-.133-.058-.248-.129-.248-.148-.484-.16-.77-.038-.268.11-.555.45-.555.663 0 .264.191.586.44.74.197.13.312.15.802.143.618-.007.885-.09 1.236-.387.7-.593.573-1.7-.249-2.203a3.418 3.418 0 00-.573-.277c-.37-.11-1.388-.129-1.815-.032zm-2.802 3.053c.165.103.203.18.273.567.045.264.198.69.37 1.037.86 1.765 3.165 3.26 6.636 4.31l.586.174.593-.174c3.464-1.05 5.77-2.545 6.63-4.31.172-.348.325-.773.37-1.037.07-.386.107-.464.273-.567.23-.135.471-.148.752-.026.522.226.675.735.426 1.405-.152.425-.299.58-.159.174.134-.374.121-.677-.044-.967-.185-.328-.338-.392-.261-.103.222.876-.434 2.036-1.714 3.028-.93.722-2.91 1.559-5.4 2.274l-1.466.425-1.465-.425c-2.49-.715-4.47-1.552-5.4-2.274-1.287-.998-1.969-2.216-1.707-3.066.076-.258-.096-.168-.268.141-.166.29-.178.593-.045.967.14.406-.006.251-.159-.174-.248-.657-.095-1.173.414-1.405a.8.8 0 01.765.026zm6.184 3.24c.21.078.65.355 1.025.645l.656.509.656-.51c.726-.553 1.28-.811 1.612-.747.242.046.33.136.382.406.032.174.013.232-.166.4-.242.232-.98.599-1.866.934l-.618.232-.586-.22c-1.28-.489-1.993-.888-2.057-1.159-.05-.206.07-.49.236-.56.223-.09.331-.078.726.07zM56.754 2.414c-1.172.315-1.924 1.037-1.924 1.855 0 1.05.93 1.604 2.096 1.243.528-.16.866-.457.936-.811.146-.812-.93-1.25-1.478-.6-.204.252-.28.168-.28-.283 0-.264.032-.348.223-.56.675-.754 2.025-.535 2.637.431.605.96.477 2.422-.344 3.994-.3.567-.726 1.198-.777 1.147-.013-.013.082-.193.222-.406.37-.554.478-.895.446-1.41-.025-.387-.044-.445-.235-.62-.204-.18-.242-.192-.63-.167-.377.026-.428.045-.625.264-.28.303-.287.56-.032.825.21.213.472.245.694.084.198-.136.185-.393-.019-.49-.184-.084-.203-.148-.057-.206.191-.07.325-.039.478.129.223.238.21.657-.032 1.134-.255.515-.344.586-.605.496-.497-.174-1.198.116-1.764.734l-.344.374v-.284c0-.766-.402-1.372-1.179-1.758-.255-.13-.49-.22-.522-.2-.108.07-.471.87-.535 1.205-.096.45.032.953.357 1.378l.216.29-.267-.103c-.166-.065-.478-.11-.841-.11-.522-.006-.605.013-.91.187-.192.103-.383.264-.434.367-.089.174-.089.174-.357.078-.382-.136-.783-.387-.936-.58-.26-.341-.12-.863.236-.863.127 0 .134.006.025.187-.089.154-.089.2-.019.29.09.103.357.135.548.064.121-.052.287-.354.287-.535 0-.077-.083-.225-.185-.341-.166-.187-.23-.213-.497-.213-.382 0-.783.239-.91.541-.236.587.413 1.392 1.35 1.669.203.058.369.129.369.154 0 .084-.102.058-.522-.103-1.49-.567-2.637-1.475-3.127-2.48-.179-.373-.204-.483-.204-.973 0-.47.025-.592.172-.876.318-.612.828-.953 1.433-.953.458-.006.681.122.872.502.14.284.115.323-.127.232-.395-.154-.962.161-1.108.619-.064.187-.058.257.044.457.179.36.395.49.835.49.433 0 .936-.206 1.312-.535.853-.76.541-2.03-.58-2.358-1.274-.373-3.19.593-3.847 1.946-.204.418-.217.476-.217 1.134v.695h-.171c-.28 0-.828.136-1.09.27-.343.175-.796.606-.955.922a1.47 1.47 0 00.032 1.333c.465.8 1.605 1.392 3.267 1.701.898.168 4.242.174 5.733.007 2.458-.271 2.464-.277 3.108-.638 3.235-1.804 5.063-3.099 6.4-4.529.988-1.05 1.472-2.01 1.478-2.886 0-.483-.095-.76-.344-1.03-.58-.606-1.783-.664-2.586-.116l-.28.186-.185-.296c-.267-.438-.732-.902-1.076-1.082-.707-.367-1.764-.451-2.65-.22zm5.248 1.713c.407.194.624.825.484 1.411l-.064.258-.006-.355c-.007-.431-.16-.753-.446-.947-.261-.173-.382-.193-.242-.032.458.51.395 1.566-.16 2.68-.738 1.488-2.375 3.008-5.369 4.993l-.828.547-1.496.065c-1.63.064-3.624-.013-4.682-.187-1.522-.252-3.006-1.07-3.509-1.933a2.074 2.074 0 01-.204-.618l-.057-.348-.102.238c-.197.438-.108.799.318 1.282l.242.284-.254-.22c-.625-.547-.828-1.133-.542-1.597.16-.27.433-.406.816-.406.299 0 .312.007.439.27.204.426.675 1.025 1.05 1.328 1.408 1.16 3.243 1.662 6.357 1.733l1.56.032.491-.342c3.656-2.583 5.363-5.05 5.076-7.35-.063-.528-.038-.586.357-.766.318-.149.49-.155.77-.02zm-5.007 5.05c.364.368-.025.903-1.547 2.146-.357.29-.395.303-.777.303-.567 0-1.656-.116-2.07-.226-.56-.148-.739-.515-.408-.85.153-.155.191-.161.682-.135.382.025.7.096 1.184.264.37.135.695.238.733.238.038 0 .242-.251.446-.56.477-.703.764-1.025 1.05-1.18.3-.16.548-.16.708 0zm35.432-6.795c-.726.2-1.293.637-1.72 1.333l-.184.296-.28-.186c-.988-.67-2.447-.413-2.841.502-.14.329-.109 1.011.063 1.52.261.741.695 1.353 1.599 2.274 1.338 1.353 3.044 2.545 6.127 4.265.643.36.65.367 3.108.638 1.49.167 4.834.16 5.732-.007 1.663-.31 2.803-.902 3.268-1.7.223-.387.235-.941.032-1.334-.16-.316-.612-.747-.956-.921-.261-.135-.809-.27-1.089-.27h-.172v-.696c0-.658-.013-.716-.216-1.134-.656-1.353-2.574-2.32-3.847-1.946-1.121.329-1.433 1.598-.58 2.358.376.329.879.535 1.312.535.44 0 .656-.13.834-.49.102-.2.109-.27.045-.457-.146-.458-.713-.773-1.108-.619-.242.09-.268.052-.128-.232.191-.38.414-.508.873-.502.605 0 1.115.341 1.433.953.146.284.172.406.172.876 0 .49-.026.6-.204.973-.49 1.005-1.637 1.913-3.127 2.48-.42.161-.522.187-.522.103 0-.025.165-.096.369-.154.936-.277 1.586-1.082 1.35-1.669-.127-.302-.528-.54-.91-.54-.268 0-.332.025-.497.212-.102.116-.185.264-.185.341 0 .18.166.483.287.535.191.07.458.039.547-.065.07-.09.07-.135-.019-.29-.108-.18-.108-.186.039-.186.343 0 .477.534.222.863-.152.193-.554.444-.936.58-.267.096-.267.096-.356-.078-.052-.103-.243-.264-.434-.367-.305-.174-.388-.193-.91-.187-.363 0-.675.045-.841.11l-.268.103.217-.29c.325-.425.452-.928.357-1.378-.064-.335-.427-1.134-.535-1.205-.032-.02-.268.07-.523.2-.777.386-1.178.992-1.178 1.758v.284l-.344-.374c-.567-.618-1.267-.908-1.764-.734-.261.09-.35.019-.605-.496-.242-.477-.255-.896-.032-1.134.153-.168.287-.2.478-.129.146.058.127.122-.058.206-.204.097-.216.354-.019.49.223.16.484.129.695-.084.254-.264.248-.522-.032-.825-.198-.219-.249-.238-.625-.264-.388-.025-.426-.013-.63.168-.191.174-.21.232-.236.618-.032.516.077.857.446 1.411.306.464.28.554-.038.122a7.253 7.253 0 01-1.16-2.64c-.171-.89-.07-1.63.3-2.217.612-.966 1.962-1.185 2.637-.431.19.212.223.296.223.56 0 .451-.077.535-.28.284-.548-.651-1.625-.213-1.478.599.07.354.407.65.936.811 1.16.355 2.096-.193 2.096-1.23 0-.438-.128-.715-.49-1.076-.39-.393-.835-.631-1.46-.792-.579-.155-1.483-.168-1.98-.032zm-2.471 1.765c.394.18.42.238.356.786-.286 2.28 1.427 4.754 5.076 7.33l.49.342 1.561-.032c3.115-.071 4.949-.574 6.357-1.733.375-.303.847-.902 1.051-1.327.133-.264.14-.27.452-.27.726 0 1.114.592.834 1.262-.114.283-.248.457-.573.74l-.255.22.242-.284c.427-.483.516-.844.319-1.282l-.102-.238-.058.348c-.146.947-1.07 1.733-2.694 2.3-1.038.367-3.299.54-5.7.438l-1.497-.065-.828-.547c-2.993-1.985-4.63-3.505-5.369-4.993-.554-1.114-.618-2.17-.16-2.68.141-.16.02-.141-.241.032-.287.194-.44.516-.446.947l-.006.355-.064-.258c-.14-.58.076-1.211.478-1.41.267-.13.465-.13.777.019zM88.822 5.97c-.02.051-.038.032-.038-.039-.007-.07.012-.11.032-.084.019.02.025.078.006.123zm6.063 3.201c.3.155.58.47 1.064 1.186.204.309.408.56.446.56.038 0 .363-.103.732-.238.484-.168.803-.239 1.185-.264.49-.026.529-.02.681.135.332.335.153.702-.407.85-.414.11-1.503.226-2.07.226-.382 0-.42-.013-.777-.303-1.522-1.243-1.91-1.778-1.548-2.145.16-.161.382-.161.694-.007z"/><path d="M64.498 6.073c-.114.058-.496.412-.847.786-1.325 1.41-2.127 2.138-3.159 2.847-.248.174-.433.31-.414.31.083 0 2.84-1.418 3.414-1.76.331-.193.79-.444 1.013-.56.471-.238.58-.232 1.834.039.707.154 2.847.502 3.522.573.319.032.293.02-.318-.18-1.185-.38-1.81-.664-3.44-1.566-1-.547-1.293-.637-1.605-.49zm.771.753c.204.252.37.464.357.477-.013.013-.16-.026-.325-.084-.414-.141-.446-.135-.796.123-.172.122-.312.212-.312.193 0-.058.382-1.005.458-1.12.102-.168.166-.123.618.411zm20.891-.779c-.16.045-.663.283-1.115.535-1.548.863-2.216 1.166-3.401 1.546-.612.2-.637.212-.319.18.676-.07 2.816-.419 3.523-.573 1.254-.27 1.363-.277 1.834-.039.223.116.681.367 1.013.56.567.335 3.33 1.76 3.413 1.76.02 0-.159-.136-.4-.297-1.052-.728-1.867-1.45-2.86-2.538-.657-.722-1.064-1.089-1.3-1.173-.05-.019-.23 0-.388.039zm.637.966c.108.27.197.51.197.522 0 .02-.147-.077-.325-.206-.356-.258-.274-.258-1.044-.032-.128.038.12-.303.611-.831.185-.2.191-.206.28-.078.051.071.179.348.28.625z"/><path d="M65.435 8.533c-.873.084-2.714.651-4.21 1.295-1.134.483-2.134 1.025-3.943 2.126L55.5 13.043l-1.88.16c-1.03.091-2.107.194-2.388.233-2.54.348-5.324 1.185-6.592 1.99-2.095 1.327-3.808 2.893-6.088 5.566l-1.204 1.41-1.656.703c-3.134 1.327-4.63 2.158-6.497 3.627-.853.663-1.21 1.024-1.86 1.868-1.496 1.939-2.311 3.42-3.636 6.635l-.694 1.675-1.395 1.218c-2.637 2.306-4.197 4.051-5.49 6.145-.81 1.301-1.637 4.097-1.981 6.68a88.06 88.06 0 00-.23 2.416l-.159 1.9-1.076 1.804c-1.777 2.99-2.56 4.76-3.19 7.215-.18.715-.198.883-.237 2.19-.063 2.532.109 3.91.968 7.582l.357 1.534-.357 1.526c-.86 3.679-1.031 5.057-.968 7.589.039 1.307.058 1.475.236 2.19.63 2.454 1.414 4.226 3.191 7.215l1.076 1.804.16 1.9c.089 1.044.19 2.132.229 2.416.344 2.583 1.172 5.379 1.98 6.68 1.294 2.094 2.854 3.839 5.49 6.146l1.396 1.217.694 1.675c1.325 3.214 2.14 4.696 3.637 6.635.65.844 1.006 1.205 1.86 1.868 1.866 1.469 3.35 2.294 6.496 3.627l1.656.702 1.07 1.25c1.42 1.656 2.286 2.59 3.133 3.363 1.121 1.024 2.81 2.261 3.656 2.686.905.451 2.898 1.082 4.37 1.385 1.178.238 1.942.335 4.012.515l1.904.161 1.79 1.089c2.93 1.784 4.573 2.538 6.943 3.169.936.252.98.258 2.356.297 2.503.064 3.866-.11 7.496-.979l1.516-.361 1.51.361c3.637.869 5 1.043 7.503.979 1.375-.039 1.42-.045 2.356-.297 2.37-.631 4.013-1.385 6.942-3.169l1.784-1.089 1.879-.161a82.778 82.778 0 002.388-.232c2.554-.348 5.318-1.185 6.605-2.003 2.07-1.308 3.796-2.886 6.076-5.553l1.204-1.411 1.656-.702c3.146-1.333 4.63-2.164 6.496-3.627.854-.663 1.21-1.024 1.86-1.868 1.49-1.939 2.299-3.408 3.637-6.635l.694-1.675 1.395-1.217c2.637-2.307 4.197-4.052 5.49-6.146.809-1.301 1.637-4.097 1.981-6.68.038-.284.14-1.372.229-2.416l.159-1.9 1.077-1.804c1.764-2.963 2.509-4.625 3.133-7.022.249-.947.255-.992.293-2.383.064-2.532-.108-3.91-.968-7.589l-.357-1.526.357-1.534c.86-3.672 1.032-5.05.968-7.582-.038-1.391-.044-1.436-.293-2.383-.624-2.397-1.369-4.059-3.133-7.022l-1.077-1.81-.159-1.926c-.178-2.094-.274-2.867-.509-4.059-.3-1.488-.924-3.504-1.37-4.419-.42-.857-1.643-2.564-2.656-3.697-.764-.857-1.688-1.733-3.324-3.17l-1.236-1.082-.694-1.675c-1.338-3.22-2.147-4.696-3.637-6.635-.65-.844-1.006-1.205-1.86-1.868-1.866-1.469-3.363-2.3-6.496-3.627l-1.656-.702-1.204-1.41c-2.28-2.674-4.006-4.246-6.076-5.554-1.287-.818-4.051-1.655-6.605-2.003a84.432 84.432 0 00-2.388-.232l-1.88-.161-1.782-1.089c-2.956-1.797-4.707-2.59-7.134-3.227-.707-.18-.873-.2-2.165-.239-2.503-.064-3.866.11-7.497.98l-1.516.36-1.51-.36c-2.623-.625-3.566-.8-5.082-.928-.853-.077-2.79-.077-3.566-.007zm3.598.973c1.185.11 2.452.342 4.573.838l1.987.463 1.994-.463c3.337-.78 4.636-.947 6.98-.89l1.44.033.891.258c2.484.728 4.032 1.481 7.643 3.723l.828.515 1.72.149c3.28.27 4.745.521 6.592 1.114 1.293.412 1.923.702 2.739 1.243 2.051 1.36 3.273 2.525 5.885 5.605l.93 1.095 1.828.78c3.318 1.41 5.082 2.421 6.936 3.987.617.522 1.515 1.675 2.337 2.989.713 1.153 1.42 2.602 2.299 4.728l.771 1.849 1.083.94c3.044 2.642 4.197 3.878 5.541 5.953.535.824.821 1.462 1.229 2.77.586 1.868.834 3.35 1.102 6.667l.146 1.74.51.837c2.235 3.678 2.955 5.198 3.681 7.73l.255.902.032 1.456c.057 2.37-.115 3.75-.885 7.093l-.459 1.984.459 1.977c.77 3.35.942 4.729.885 7.1l-.032 1.455-.255.902c-.726 2.532-1.446 4.052-3.681 7.73l-.51.838-.146 1.739c-.268 3.318-.516 4.799-1.102 6.667-.408 1.308-.694 1.946-1.229 2.77-1.344 2.075-2.497 3.311-5.541 5.953l-1.083.94-.771 1.849c-.879 2.126-1.586 3.575-2.299 4.728-.822 1.314-1.72 2.468-2.337 2.989-1.854 1.566-3.618 2.577-6.936 3.988l-1.828.779-.93 1.095c-2.612 3.08-3.834 4.246-5.885 5.605-.816.541-1.446.831-2.739 1.243-1.847.593-3.318.844-6.592 1.115l-1.72.148-.891.554c-3.503 2.184-5.09 2.957-7.58 3.685l-.891.257-1.44.032c-2.343.058-3.706-.116-7.012-.895l-1.962-.464-1.955.464c-3.312.779-4.675.953-7.019.895l-1.44-.032-.89-.257c-2.504-.735-4.007-1.463-7.644-3.724l-.828-.515-1.72-.148c-3.28-.271-4.744-.522-6.591-1.115-1.293-.412-1.924-.702-2.74-1.243-2.056-1.366-3.267-2.519-5.884-5.605l-.93-1.095-1.828-.779c-3.318-1.411-5.083-2.422-6.936-3.988-.618-.521-1.516-1.675-2.337-2.989-.714-1.153-1.42-2.602-2.3-4.728l-.77-1.849-1.083-.94c-3.05-2.648-4.19-3.872-5.541-5.953-.535-.824-.822-1.462-1.23-2.77-.585-1.868-.834-3.349-1.101-6.66l-.147-1.74-.662-1.095c-2.076-3.42-2.822-5.005-3.529-7.48l-.254-.901-.032-1.456c-.058-2.37.108-3.685.879-7.067l.458-2.01-.458-2.016c-.771-3.375-.937-4.69-.88-7.06l.033-1.456.254-.902c.714-2.506 1.42-3.987 3.624-7.64l.567-.934.147-1.74c.267-3.31.516-4.792 1.102-6.66.407-1.308.694-1.946 1.229-2.77 1.35-2.08 2.49-3.305 5.54-5.953l1.084-.94.77-1.849c1.395-3.356 2.395-5.14 3.943-7.015.516-.625 1.656-1.533 2.955-2.364 1.14-.722 2.573-1.437 4.675-2.326l1.828-.78.93-1.094c2.611-3.08 3.834-4.245 5.885-5.605.815-.54 1.446-.83 2.739-1.243 1.847-.593 3.312-.844 6.585-1.114l1.72-.149.923-.573c3.058-1.887 4.459-2.615 6.248-3.253.79-.277 1.956-.606 2.357-.657.554-.078 2.892-.071 3.694.006z"/><path d="M40.773 11.162a2.52 2.52 0 00-1.07.799l-.178.238-.293-.264a3.65 3.65 0 00-.707-.464c-1.108-.528-2.77-.135-3.809.902-.484.49-.713.947-.713 1.43 0 1.327 1.344 1.804 2.548.902.267-.193.51-.619.51-.883 0-.425-.332-.78-.733-.78-.382 0-.784.304-.905.67l-.057.194-.146-.245c-.121-.193-.14-.303-.121-.554.038-.406.248-.689.694-.934.293-.16.414-.187.821-.187.389 0 .535.033.797.168.65.341 1.07.94 1.286 1.836.127.528.14 1.74.026 2.306-.128.625-.338 1.32-.408 1.32-.032 0-.038-.05-.013-.115.23-.548.287-1.224.153-1.714-.083-.296-.35-.593-.599-.657-.452-.116-1.114.341-1.114.78 0 .302.083.457.325.58.216.115.4.083.617-.117.249-.232.147-.496-.203-.496-.179 0-.185 0-.07-.129.165-.186.484-.167.668.033.204.219.249.78.102 1.282l-.108.36h-.255c-.63 0-1.223.6-1.618 1.643-.044.116-.057.11-.095-.064-.121-.535-.529-1.057-.987-1.263-.274-.122-1.147-.277-1.236-.219-.09.052-.216.992-.172 1.295.02.16.083.393.14.509.115.25.478.644.74.805l.184.11-.51.032c-.84.051-1.567.496-1.72 1.063-.044.174-.063.18-.426.174-.739-.013-1.236-.303-1.236-.735 0-.187.038-.277.14-.348.198-.142.21-.135.21.13 0 .308.153.418.402.282.344-.2.407-.586.146-.908-.095-.122-.184-.154-.433-.154-.388 0-.688.206-.86.592-.159.367-.076.638.28.954.338.29.79.438 1.37.444.255.007.465.032.465.065 0 .083-1.28 0-1.815-.116-1.427-.31-2.484-.992-2.866-1.856-.433-.953-.109-2.003.758-2.448.465-.238 1.025-.077 1.26.355.052.103.045.116-.07.077-.528-.167-1.19.683-.93 1.192.134.258.453.45.733.45.739-.006 1.656-.978 1.656-1.77 0-.11-.076-.355-.165-.542-.3-.605-.911-.87-1.644-.715-1.089.226-2.254 1.327-2.65 2.506-.222.683-.152 1.417.217 2.274.039.09.02.116-.063.116-.408.006-1.204.644-1.472 1.185-.547 1.089-.006 2.01 1.389 2.384 1.904.502 5.006-.31 9.547-2.487l.732-.354.867-.96c2.4-2.66 3.617-4.335 4.337-5.965.847-1.913.726-3.518-.3-3.988-.33-.154-.916-.154-1.35-.006zm.402.844c.286.18.522.702.56 1.262l.032.451-.057-.373c-.109-.696-.42-1.07-.956-1.166l-.223-.039.262.226c.382.322.554.76.586 1.5.05 1.121-.21 2.184-.828 3.33-.53.993-1.555 2.52-2.542 3.782l-.834 1.076-.675.27c-1.77.696-3.91 1.334-5.3 1.579-1.515.264-3.42-.155-4.044-.89-.12-.147-.223-.289-.223-.315a1.28 1.28 0 00-.07-.232l-.076-.18-.045.213c-.102.457.204.979.7 1.204.351.161.281.193-.076.039-.337-.148-.72-.47-.853-.722-.204-.4-.038-.979.338-1.172.356-.18.496-.18.662-.006.21.231.847.682 1.236.882.688.341 1.515.502 2.598.509 1.338 0 2.554-.22 4.293-.76 1.376-.432 1.414-.451 1.866-1.05.739-.992 1.471-2.165 1.91-3.067.701-1.449.956-2.39.956-3.523 0-.754-.108-1.282-.376-1.881l-.184-.413.12-.2c.255-.43.835-.585 1.243-.334zM37.76 18.37c.102.13.127.232.102.374-.057.283-.446 1.044-.93 1.797l-.427.664-.758.2c-1.707.45-2.229.444-2.344-.026-.057-.226.09-.438.427-.619.236-.122.395-.142 1.268-.167l1.006-.026.23-.754c.254-.837.439-1.204.732-1.45.26-.225.516-.218.694.007zm71.303-7.202c-1.026.47-1.147 2.075-.299 3.988.7 1.585 1.968 3.33 4.241 5.862l.962 1.07.733.347c3.331 1.591 5.662 2.384 7.662 2.596 1.05.116 2.127-.064 2.751-.457.943-.593.962-1.791.038-2.66-.325-.31-.764-.555-.987-.561-.083 0-.102-.026-.07-.116.267-.631.35-.953.35-1.404 0-.883-.407-1.733-1.203-2.493-1.223-1.16-2.688-1.237-3.217-.168-.089.187-.165.432-.165.541 0 .793.917 1.765 1.656 1.772a.89.89 0 00.732-.451c.261-.51-.401-1.36-.93-1.192-.115.039-.121.026-.07-.077.236-.432.796-.593 1.261-.355.866.445 1.191 1.495.758 2.448-.382.864-1.439 1.546-2.866 1.856-.535.116-1.815.2-1.815.116 0-.033.21-.058.465-.065.579-.006 1.031-.154 1.369-.444.357-.316.439-.587.28-.954-.172-.386-.471-.592-.86-.592-.248 0-.337.032-.433.154-.261.322-.197.709.147.909.248.135.401.025.401-.284 0-.264.013-.27.21-.129.102.071.14.161.14.348 0 .432-.496.722-1.235.735-.363.006-.382 0-.427-.174-.153-.567-.879-1.012-1.72-1.063l-.509-.033.185-.109c.261-.161.624-.554.738-.805.058-.116.121-.348.14-.51.045-.302-.082-1.242-.171-1.294-.09-.058-.962.097-1.236.219-.459.206-.866.728-.987 1.263-.039.174-.051.18-.096.064-.286-.76-.675-1.288-1.127-1.52a1.31 1.31 0 00-.491-.123h-.254l-.109-.36c-.146-.503-.102-1.063.102-1.282.185-.2.503-.22.669-.033.115.13.108.13-.07.13-.35 0-.452.263-.197.495.21.2.394.232.611.116.242-.122.325-.277.325-.58 0-.438-.663-.895-1.115-.779-.662.167-.879 1.32-.446 2.37.026.065.019.117-.012.117-.077 0-.3-.748-.408-1.353-.045-.232-.076-.741-.076-1.127 0-1.495.465-2.5 1.388-2.983.261-.135.408-.168.796-.168.408 0 .529.026.822.187.446.245.656.528.694.934.019.252 0 .361-.121.554l-.146.245-.058-.193c-.121-.367-.522-.67-.904-.67-.401 0-.733.354-.733.78 0 .263.242.689.51.882 1.204.902 2.548.425 2.548-.902 0-.98-1.166-2.107-2.548-2.467-.65-.174-1.446-.116-1.975.135-.229.11-.547.322-.707.464l-.292.264-.179-.238c-.567-.76-1.688-1.128-2.42-.793zm1.866.844c.115.071.261.22.325.329l.121.2-.185.412c-.503 1.12-.509 2.486-.019 4.006.382 1.173 1.401 2.983 2.51 4.465.452.599.49.618 1.866 1.05 2.605.818 4.573.979 6.222.509.618-.174 1.51-.709 1.905-1.14.121-.13.191-.155.318-.123.478.116.771.445.771.876 0 .31-.121.554-.408.805-.21.187-.796.49-.847.445-.013-.013.096-.077.236-.142.496-.225.802-.747.7-1.204l-.044-.213-.077.18c-.038.103-.07.207-.07.232 0 .026-.102.168-.223.316-.624.734-2.528 1.153-4.044.889-1.389-.245-3.529-.883-5.299-1.578l-.675-.27-.835-1.077c-.987-1.262-2.012-2.79-2.541-3.781-.618-1.147-.879-2.21-.828-3.33.032-.741.204-1.18.586-1.502l.261-.225-.223.039c-.535.096-.847.47-.955 1.166l-.057.373.031-.45c.039-.561.274-1.083.561-1.263.255-.161.65-.155.917.006zm3.191 6.352c.293.245.478.612.732 1.45l.23.753 1.006.026c.873.026 1.032.045 1.267.167.338.18.485.393.427.619-.114.47-.637.476-2.344.025l-.758-.2-.426-.663c-.484-.753-.873-1.514-.93-1.797-.026-.142 0-.245.102-.374.178-.225.433-.232.694-.006z"/><path d="M44.085 12.766c-.254.051-.566.515-1.012 1.514-.484 1.082-1.198 2.332-1.777 3.111-.21.284-.42.574-.472.644-.089.136 2.376-2.364 3.287-3.324.586-.625.605-.631 1.93-.76.37-.038 1.414-.193 2.324-.341l1.656-.277-1.337-.039c-1.319-.039-1.637-.077-3.363-.412-.79-.155-.949-.174-1.236-.116zm.644.638c.267.16.496.309.51.335.012.025-.147.051-.364.051-.407.007-.497.065-.822.541-.108.155-.108.148-.076-.386.045-.709.07-.838.185-.838.05 0 .306.136.567.297zm61.404-.58c-1.605.341-2.255.425-3.598.464l-1.37.045 1.656.277c.911.148 1.956.303 2.325.341 1.325.129 1.344.135 1.93.76.911.96 3.375 3.46 3.286 3.324-.051-.07-.261-.36-.471-.644-.58-.78-1.293-2.029-1.783-3.118-.542-1.217-.752-1.481-1.211-1.52a3.083 3.083 0 00-.764.07zm1.013.425c.019.084.044.393.063.696.032.534.032.54-.076.386-.325-.476-.414-.534-.828-.54-.452-.007-.446-.02.166-.407.49-.309.637-.335.675-.135zm-75.5 11.306c-.694.27-2.025.586-3.063.721-1.586.22-1.828.258-2.057.367-.37.18-.401.31-.682 2.403-.134 1.05-.446 2.377-.72 3.124-.095.245-.159.458-.146.464.038.039 1.3-2.435 1.72-3.369a47.7 47.7 0 01.541-1.16c.16-.309.236-.354 1.554-.96a50.21 50.21 0 001.943-.966c1.567-.824 1.758-.96.91-.624zm-4.241 1.578l.516.135-.414.142-.408.135-.134.412-.14.42-.134-.523c-.076-.283-.14-.592-.14-.689 0-.219.147-.225.854-.032zm91.785-1.643c.369.239 2.35 1.256 3.204 1.656 1.318.605 1.394.65 1.554.96.076.148.318.67.541 1.16.42.933 1.681 3.407 1.72 3.368.012-.006-.051-.219-.147-.464-.274-.747-.586-2.074-.72-3.124-.28-2.12-.318-2.235-.7-2.403-.331-.142-.376-.148-1.567-.296-1.522-.193-2.509-.425-3.949-.934-.07-.026-.038.006.064.077zm5.445 1.675c0 .097-.063.406-.14.69l-.133.521-.141-.419-.133-.412-.408-.135-.414-.142.478-.135c.261-.071.573-.136.688-.136.178-.006.203.013.203.168z"/><path d="M23.494 24.825c-.694.219-1.522 1.102-1.529 1.643 0 .083-.025.103-.108.07-.63-.27-.949-.354-1.395-.354-.872 0-1.713.412-2.465 1.218-1.146 1.237-1.222 2.718-.165 3.253.185.09.427.167.535.167.783 0 1.745-.927 1.751-1.674a.9.9 0 00-.445-.741c-.503-.264-1.344.405-1.179.94.038.116.026.123-.076.071-.427-.238-.586-.805-.35-1.275.44-.877 1.477-1.205 2.42-.767.853.386 1.528 1.456 1.834 2.899.115.541.198 1.836.115 1.836-.032 0-.058-.213-.064-.47-.006-.587-.153-1.044-.44-1.385-.311-.361-.579-.445-.942-.284-.382.174-.586.477-.586.87 0 .251.032.341.153.438.318.264.7.2.898-.148.134-.252.025-.406-.28-.406-.261 0-.268-.013-.128-.213.07-.103.16-.142.344-.142.427 0 .714.503.726 1.25.007.367 0 .387-.172.432-.56.154-1 .889-1.05 1.74l-.032.514-.109-.186c-.159-.265-.547-.632-.796-.748a1.85 1.85 0 00-.503-.141c-.3-.045-1.23.083-1.28.174-.057.09.095.972.216 1.25.204.463.72.875 1.249.998.172.038.178.051.064.096-.752.29-1.274.683-1.504 1.14a1.352 1.352 0 00-.12.497v.257l-.357.11c-.497.148-1.051.103-1.268-.103-.197-.187-.216-.51-.032-.677.128-.115.128-.11.128.071 0 .355.26.458.49.2.198-.213.23-.4.115-.618-.121-.245-.274-.329-.573-.329-.433 0-.886.67-.771 1.127.165.67 1.306.89 2.35.451.058-.026.108-.019.108.013 0 .078-.738.303-1.337.412-.23.045-.726.078-1.115.078-1.477 0-2.47-.47-2.949-1.405-.133-.264-.165-.412-.165-.805 0-.412.025-.534.184-.83.243-.452.523-.664.924-.703.248-.02.357 0 .548.122l.242.149-.191.058c-.363.122-.663.528-.663.914 0 .406.35.741.771.741.261 0 .681-.245.873-.515.891-1.218.42-2.577-.892-2.577-.968 0-2.083 1.179-2.44 2.577-.171.657-.114 1.462.134 1.997a3.7 3.7 0 00.459.715l.261.296-.236.18a2.31 2.31 0 00-.898 1.804c-.006 1.566 1.77 1.984 4.057.947 1.612-.728 3.268-1.958 5.898-4.387l.95-.876.35-.74c2.152-4.594 2.955-7.73 2.458-9.657-.204-.773-.548-1.282-1.013-1.495-.26-.122-.707-.148-.987-.064zm.121 1.127c.248.136.548.496.7.85.077.168.128.316.115.33-.012.012-.076-.097-.14-.24-.223-.502-.739-.81-1.19-.708l-.211.045.178.078c.102.038.204.07.23.07.025 0 .165.104.312.226.726.631 1.14 2.557.879 4.09-.242 1.405-.873 3.57-1.56 5.36l-.268.683-1.064.844c-1.248.998-2.758 2.036-3.739 2.57-1.133.625-2.184.89-3.292.838-.733-.032-1.166-.206-1.484-.593l-.223-.264.038.225c.095.541.465.857 1.153.967l.37.058-.447-.032c-.554-.04-1.07-.277-1.248-.567-.248-.413-.096-.999.331-1.257l.198-.122.407.187c1.108.509 2.459.515 3.962.02 1.159-.387 2.949-1.418 4.413-2.539.593-.457.612-.496 1.039-1.887.809-2.635.968-4.626.503-6.294-.172-.625-.7-1.527-1.128-1.926-.171-.168-.171-.31.007-.67.191-.38.764-.548 1.16-.342zM22.24 33.09c.191.232.134.812-.223 2.203l-.197.767-.656.431c-.745.49-1.497.883-1.777.94-.14.027-.242 0-.37-.102-.222-.18-.229-.438-.006-.702.242-.297.605-.484 1.433-.741l.745-.232.026-1.018c.025-.883.045-1.044.166-1.282.242-.477.592-.586.86-.264zm104.465-8.207c-.726.348-1.14 1.34-1.14 2.75 0 1.933.707 4.291 2.414 8.04.236.522.446.94.459.928.012-.013-.121-.4-.287-.857-.694-1.849-1.21-3.646-1.452-5.05-.261-1.534.153-3.46.879-4.091.146-.122.286-.226.312-.226.025 0 .127-.032.229-.07l.179-.078-.211-.045c-.452-.103-.968.206-1.191.709-.159.354-.191.283-.038-.077.147-.342.465-.728.714-.864.394-.206.968-.038 1.159.342.178.36.178.502.006.67-.229.212-.675.857-.873 1.25-.624 1.269-.675 3.304-.133 5.572.178.76.611 2.183.79 2.609.089.206.242.373.63.676.981.747 2.14 1.488 3.032 1.933 1.433.708 2.363.966 3.484.966.745 0 1.267-.11 1.859-.38l.408-.187.197.122c.427.258.58.844.332 1.257-.179.29-.695.528-1.249.567l-.446.032.37-.058c.688-.11 1.057-.425 1.153-.967l.038-.225-.223.264c-.318.387-.752.56-1.484.593-1.108.051-2.159-.213-3.293-.838-1.216-.67-2.981-1.92-4.598-3.26-.574-.47-.23-.109.796.838 2.503 2.313 4.248 3.601 5.821 4.316 2.287 1.037 4.064.619 4.057-.947a2.31 2.31 0 00-.898-1.803l-.235-.18.261-.297c.14-.161.35-.483.458-.715.523-1.121.134-2.802-.891-3.852-.484-.49-.937-.722-1.414-.722-1.312 0-1.784 1.36-.892 2.577.191.27.611.515.873.515.42 0 .77-.335.77-.74 0-.387-.299-.793-.662-.915l-.191-.058.242-.149c.191-.122.299-.141.548-.122.401.039.681.251.923.702.159.297.185.419.185.831 0 .393-.032.541-.166.805-.331.651-.936 1.083-1.815 1.302-.522.128-1.72.141-2.28.025-.618-.128-1.306-.341-1.306-.412 0-.032.051-.039.115-.013.541.232 1.21.29 1.694.155.293-.084.586-.354.65-.606.114-.457-.338-1.127-.771-1.127-.299 0-.452.084-.573.329-.115.219-.083.405.114.618.23.258.491.155.491-.2 0-.18 0-.187.127-.07.185.167.166.489-.032.676-.216.206-.77.251-1.267.103l-.357-.11v-.257c0-.638-.592-1.237-1.624-1.636-.115-.046-.108-.058.064-.097.528-.123 1.044-.535 1.248-.999.121-.277.274-1.16.217-1.25-.051-.09-.981-.218-1.28-.173-.16.019-.389.083-.504.141-.248.116-.637.483-.796.748l-.108.186-.032-.515c-.051-.85-.49-1.585-1.051-1.74-.172-.044-.178-.064-.172-.43.013-.748.3-1.25.726-1.25.185 0 .274.038.344.141.14.2.134.213-.127.213-.306 0-.414.154-.28.406.197.348.579.412.898.148.121-.097.153-.187.153-.438 0-.393-.204-.696-.586-.87-.363-.161-.631-.077-.943.284-.287.341-.433.798-.44 1.384-.006.258-.025.47-.05.47-.083 0-.058-.92.044-1.52.274-1.604.975-2.795 1.892-3.214.942-.438 1.981-.11 2.42.767.236.47.076 1.037-.35 1.275-.102.052-.115.045-.077-.07.166-.535-.675-1.205-1.178-.941a.9.9 0 00-.446.74c.007.748.968 1.675 1.752 1.675.108 0 .35-.077.535-.167.598-.303.859-.921.707-1.662-.223-1.102-1.312-2.28-2.478-2.68-.675-.225-1.401-.154-2.248.22-.089.038-.115.018-.115-.065-.006-.413-.637-1.218-1.178-1.488-.427-.22-.994-.265-1.338-.097zm2.822 8.104c.076.051.204.219.28.367.121.238.14.4.166 1.282l.025 1.018.745.232c.828.257 1.191.444 1.433.74.223.265.217.522-.006.703-.127.103-.229.129-.369.103-.281-.058-1.032-.451-1.777-.94l-.656-.432-.198-.767c-.427-1.649-.439-2.19-.057-2.345.204-.084.255-.077.414.039z"/><path d="M18.112 40.852c-.86.651-2 1.328-3.152 1.856-.523.238-1.07.534-1.204.657-.35.303-.376.535-.172 1.597.337 1.753.376 2.075.414 3.415l.038 1.352.274-1.675c.146-.92.3-1.977.337-2.35.128-1.34.134-1.36.752-1.953.866-.844 3.414-3.395 3.382-3.388-.02 0-.319.219-.669.49zm-3.089 2.841c-.465.322-.528.419-.535.831 0 .22-.025.38-.05.367-.084-.051-.625-.998-.625-1.088 0-.129.197-.168 1.178-.213l.191-.006-.159.11zm118.784-1.913c.79.792 1.681 1.681 1.981 1.971.617.593.624.612.751 1.952.038.374.191 1.43.338 2.351l.274 1.675.038-1.352c.044-1.405.064-1.566.382-3.24.236-1.25.223-1.463-.14-1.772-.134-.123-.682-.419-1.217-.664-1.07-.49-2.305-1.21-3.076-1.797a62.63 62.63 0 00-.637-.477c-.07-.045.516.56 1.306 1.353zm3.426 1.9c.077.013.141.071.141.123 0 .09-.542 1.037-.625 1.089-.025.012-.051-.149-.051-.368-.006-.412-.063-.502-.535-.83-.152-.11-.146-.11.383-.078.299.02.605.045.687.064z"/><path d="M11.01 43.378c-.47.154-.955.586-1.197 1.082-.133.264-.267.818-.267 1.102v.173h-.688c-.65 0-.707.013-1.121.22-1.338.663-2.293 2.602-1.924 3.89.325 1.134 1.58 1.45 2.332.587.324-.38.528-.89.528-1.327 0-.445-.127-.664-.484-.844-.197-.103-.267-.11-.452-.045-.452.148-.764.721-.611 1.12.089.245.05.271-.23.13-.376-.194-.503-.42-.497-.883 0-.612.338-1.128.943-1.45.28-.148.401-.174.866-.174.484 0 .593.026.962.206.994.497 1.892 1.656 2.452 3.163.16.426.185.529.108.529-.032 0-.101-.168-.159-.374-.274-.947-1.07-1.604-1.65-1.366-.299.13-.534.535-.534.922 0 .27.025.335.21.502.114.103.26.187.337.187.179 0 .478-.168.529-.29.07-.193.038-.464-.064-.554-.089-.07-.133-.07-.286.02-.179.109-.185.109-.185-.04 0-.347.529-.482.853-.225.191.155.44.56.574.947.095.27.095.27-.077.36-.102.053-.261.246-.363.439-.172.31-.19.393-.185.921 0 .367.045.683.109.85l.102.271-.287-.219c-.42-.328-.917-.457-1.363-.36-.331.064-1.121.43-1.191.54-.02.033.07.271.197.529.383.786.981 1.191 1.74 1.191h.28l-.37.348c-.611.574-.898 1.282-.726 1.785.09.264.02.354-.49.612-.472.244-.886.257-1.121.032-.166-.155-.198-.29-.128-.483.058-.148.121-.13.204.058.096.206.35.219.484.019.16-.225.127-.49-.083-.702-.26-.258-.516-.251-.815.032-.217.2-.236.251-.261.631-.026.393-.013.432.165.638.172.193.23.213.612.238.51.033.847-.077 1.395-.45.458-.31.547-.284.12.038-.738.548-1.75.999-2.61 1.173-.88.174-1.612.07-2.192-.303-.955-.619-1.171-1.984-.426-2.667.21-.193.293-.226.554-.226.446 0 .528.078.28.284-.643.554-.21 1.642.592 1.494.35-.07.644-.412.803-.947.28-.92 0-1.739-.688-2.029-.306-.135-.828-.11-1.146.045-1.217.593-1.765 3.009-1.013 4.49.178.348.637.818 1.07 1.089l.293.187-.185.283c-.662.999-.407 2.474.497 2.873.325.142 1 .11 1.503-.064.733-.264 1.338-.702 2.248-1.617 1.338-1.353 2.516-3.08 4.217-6.197.356-.65.363-.657.63-3.144.166-1.507.16-4.89-.006-5.797-.3-1.662-.892-2.835-1.662-3.286-.293-.174-.79-.258-1.051-.167zm.23 1.327c.28.116.452.251.732.58l.217.257-.28-.245c-.478-.431-.835-.521-1.268-.322l-.235.103.343.058c.937.148 1.714 1.083 2.274 2.725.363 1.05.535 3.337.433 5.766l-.063 1.514-.542.837c-1.961 3.028-3.464 4.683-4.936 5.43-1.102.561-2.146.625-2.65.162-.158-.142-.14-.02.033.244.19.29.51.445.936.451.293.007.318.02.16.058-.51.13-1.014.032-1.3-.264-.249-.251-.306-.56-.172-.921.172-.45.255-.496.79-.432 2.273.29 4.713-1.43 7.267-5.134l.337-.496-.032-1.578c-.07-3.15-.566-5.005-1.713-6.43-.3-.38-.891-.856-1.306-1.062-.267-.129-.273-.142-.273-.444 0-.741.58-1.14 1.248-.857zm.656 7.163c.076.064.178.27.23.47.107.42.222 1.52.222 2.094 0 .386-.013.425-.3.786-1.228 1.54-1.757 1.932-2.12 1.565-.16-.16-.16-.386-.006-.702.152-.303.464-.586 1.171-1.076.306-.206.555-.412.555-.45 0-.04-.102-.368-.236-.741-.166-.49-.236-.812-.261-1.199-.026-.496-.02-.534.133-.689.192-.193.42-.212.612-.058zm127.509-8.464c-.917.347-1.605 1.552-1.942 3.427-.102.54-.121.972-.121 2.705 0 2.062.044 2.667.325 4.89l.095.76.484.882c1.662 3.009 2.732 4.568 4.057 5.901.911.915 1.516 1.353 2.249 1.617.503.174 1.178.206 1.503.064.904-.4 1.159-1.874.496-2.873l-.184-.283.293-.187c.433-.27.891-.74 1.07-1.089.751-1.481.204-3.897-1.013-4.49-.318-.154-.841-.18-1.146-.045-.688.29-.968 1.108-.688 2.03.159.534.452.876.802.946.803.148 1.236-.94.593-1.494-.249-.206-.166-.284.28-.284.261 0 .344.033.554.226.745.683.529 2.048-.427 2.667-.949.612-2.395.483-3.949-.348-.56-.303-1.184-.734-1.133-.786.012-.013.191.084.401.225.548.374.885.484 1.395.451.382-.025.439-.045.611-.238.179-.206.191-.245.166-.638-.026-.38-.045-.431-.261-.63-.3-.284-.554-.29-.816-.033-.21.212-.242.477-.082.702.133.2.388.187.484-.02.082-.186.146-.206.203-.057.071.193.039.328-.127.483-.236.225-.65.212-1.121-.032-.509-.258-.579-.348-.49-.612.172-.503-.115-1.211-.726-1.785l-.37-.348h.28c.758 0 1.357-.405 1.739-1.191.128-.258.217-.496.198-.529-.07-.11-.86-.476-1.191-.54-.446-.097-.943.032-1.363.36l-.287.22.102-.271c.064-.168.108-.484.108-.85.007-.53-.013-.613-.184-.922-.102-.193-.262-.386-.364-.438-.171-.09-.171-.09-.076-.36.134-.387.382-.793.573-.948.338-.264.854-.122.854.239 0 .128-.007.135-.185.025-.153-.09-.197-.09-.287-.019-.101.09-.133.36-.063.554.051.122.35.29.528.29.077 0 .223-.084.338-.187.185-.167.21-.232.21-.502 0-.387-.236-.793-.535-.922-.579-.238-1.376.42-1.649 1.366-.058.206-.128.374-.153.374-.083 0-.058-.103.102-.529.56-1.507 1.458-2.666 2.452-3.163.369-.18.477-.206.961-.206.465 0 .586.026.867.174.605.322.942.838.942 1.45.007.464-.121.689-.497.882-.28.142-.318.116-.229-.129.153-.399-.159-.972-.611-1.12-.185-.065-.255-.058-.453.045-.356.18-.484.4-.484.844 0 .438.204.947.529 1.327.752.863 2.006.547 2.331-.587.37-1.288-.586-3.227-1.923-3.89-.414-.207-.472-.22-1.121-.22h-.688v-.173c0-.284-.134-.838-.268-1.102-.172-.348-.605-.805-.898-.953-.318-.168-.783-.213-1.07-.103zm1.351 1.3c.28.149.439.458.439.845 0 .315-.006.322-.267.457-.421.206-1.013.683-1.312 1.063-1.147 1.424-1.644 3.279-1.714 6.429l-.032 1.578.338.496c2.554 3.704 4.993 5.424 7.267 5.134.535-.064.618-.019.79.432.306.812-.471 1.443-1.471 1.185-.16-.038-.134-.051.159-.058.427-.006.745-.16.936-.45.172-.265.191-.387.032-.245-.357.328-1.191.399-1.879.167-.535-.18-1.261-.567-1.764-.94-.981-.722-2.484-2.564-3.943-4.813l-.541-.843-.064-1.514c-.063-1.65.013-3.666.185-4.735.248-1.54 1.057-3.04 1.911-3.55.146-.083.42-.18.611-.206l.344-.058-.236-.103c-.433-.2-.789-.11-1.267.316-.229.2-.255.213-.121.058.529-.65 1.127-.889 1.599-.644zm-.854 7.222c.153.155.159.193.134.69-.026.386-.096.708-.261 1.198-.134.373-.236.702-.236.74 0 .039.248.245.554.451.707.49 1.019.773 1.172 1.076.153.316.153.541-.006.702-.363.367-.892-.026-2.121-1.565-.287-.36-.3-.4-.3-.786 0-.573.115-1.675.223-2.094.147-.566.51-.747.841-.412zm4.65 10.307c-.02.02-.077.026-.121.007-.051-.02-.032-.04.038-.04.07-.006.108.014.083.033z"/><path d="M10.692 59.92c0 .116-.98 1.437-1.49 2.017-.268.303-.828.863-1.249 1.256-.42.386-.853.837-.961.986-.344.476-.344.49.783 2.654.548 1.043.803 1.649 1.115 2.64.197.62.21.645.178.323-.07-.683-.414-2.848-.567-3.563-.267-1.269-.274-1.378-.038-1.855.115-.225.363-.69.554-1.024.484-.837 1.752-3.42 1.713-3.466-.019-.02-.038-.006-.038.032zM8.1 64.391c-.255.36-.255.277-.032 1.057.026.096-.044.058-.293-.149-.586-.496-.739-.657-.675-.721.064-.065 1.095-.509 1.185-.515.032 0-.058.148-.185.328zm132.331-4.49c0 .084 1.401 2.873 1.738 3.453.192.335.44.799.555 1.024.235.477.229.586-.039 1.862-.165.792-.675 4.02-.637 4.058.013.013.045-.077.071-.193.095-.45.56-1.765.834-2.364.159-.341.529-1.07.822-1.617.611-1.147.7-1.43.547-1.752-.051-.116-.401-.503-.77-.857-1.395-1.34-2.115-2.152-2.816-3.195-.172-.251-.305-.438-.305-.419zm2.968 4.361c.274.103.547.232.618.284.127.09.121.096-.077.283-.522.496-.86.747-.822.619.223-.78.223-.696-.031-1.057-.128-.18-.223-.328-.204-.328.013 0 .248.09.516.2z"/><path d="M4.616 64.99c-.337.129-.764.567-.936.967a2.549 2.549 0 00-.026 1.79c.026.071-.05.116-.33.174-1.052.239-1.79.96-2.166 2.1-.14.432-.166.638-.172 1.257-.007.83.05 1.095.356 1.61.497.831 1.593.96 2.179.251.293-.354.375-.625.382-1.25.006-.496-.013-.611-.14-.811-.153-.252-.472-.445-.733-.445-.21 0-.548.29-.656.56-.12.29-.108.529.038.78.07.116.128.226.128.251 0 .071-.516-.032-.675-.141-.268-.174-.427-.632-.395-1.095.038-.477.21-.838.567-1.153 1.012-.928 2.643-.619 4.152.798.427.393 1.128 1.257 1.121 1.372 0 .046-.05.007-.108-.083-.242-.367-.752-.844-1.051-.999-.758-.38-1.382-.051-1.382.741 0 .36.153.638.42.747.185.078.249.078.427 0 .363-.148.478-.708.178-.876-.102-.051-.165-.032-.318.103l-.198.168v-.226c0-.644.892-.567 1.44.123.293.38.3.393.146.599-.369.502-.19 1.642.35 2.254.122.142.122.155.013.11-.573-.206-1.242-.206-1.636-.007-.293.155-.95.8-.95.934 0 .136.657.78.95.935.394.2 1.063.2 1.636-.007.109-.045.109-.032-.012.11-.542.612-.72 1.752-.35 2.254.152.206.146.22-.147.6-.548.689-1.44.766-1.44.122v-.226l.198.168c.153.135.216.154.318.103.3-.168.185-.728-.178-.876-.433-.187-.847.18-.847.747 0 .793.624 1.121 1.382.74.3-.154.809-.63 1.05-.998.058-.09.11-.128.11-.083.006.116-.695.979-1.122 1.372-.688.65-1.401 1.056-2.184 1.262-.95.245-1.873-.115-2.338-.92-.331-.58-.235-1.508.198-1.792.159-.11.675-.212.675-.141 0 .025-.058.135-.128.25-.146.252-.159.49-.038.78.108.27.446.56.656.56.261 0 .58-.192.733-.444.127-.2.146-.315.14-.811-.007-.625-.09-.896-.382-1.25-.586-.709-1.682-.58-2.179.251-.305.515-.363.786-.356 1.61 0 .632.025.819.178 1.257.395 1.16 1.115 1.862 2.16 2.093.292.071.362.11.324.187-.197.49-.185 1.276.038 1.791.179.425.656.889 1.02.986.713.193 1.725-.374 2.509-1.411 1.095-1.443 1.955-3.885 2.738-7.788l.293-1.43-.293-1.437c-.783-3.897-1.643-6.339-2.738-7.782-.816-1.076-1.892-1.649-2.599-1.385zm.815 1.463c.414.154.554.296.16.154-.37-.135-.67-.122-.956.045-.306.174-.395.348-.14.27.84-.263 2.045.426 3.032 1.727.713.94 1.541 2.944 2.248 5.463l.42 1.482-.42 1.481c-.707 2.519-1.535 4.522-2.248 5.463-.981 1.295-2.128 1.958-2.994 1.733-.286-.078-.223.077.102.264.287.167.586.18.956.045.4-.142.248.006-.172.161-.663.251-1.166.097-1.389-.432-.12-.283-.108-.528.026-.76.101-.167.178-.206.56-.277.261-.045.682-.2 1.026-.373 1.745-.87 3.222-3.202 4.26-6.713l.172-.593-.172-.599c-1.038-3.504-2.515-5.836-4.26-6.706-.344-.173-.765-.328-1.026-.373-.382-.071-.458-.11-.56-.277-.191-.322-.128-.741.159-1.057.274-.296.669-.341 1.216-.129zm2.529 6.641c.223.232.592.992.917 1.875l.23.625-.23.624c-.331.896-.694 1.643-.924 1.888-.165.18-.222.2-.394.167-.268-.051-.357-.141-.402-.386-.063-.335.191-.896.74-1.63l.502-.663-.503-.664c-.77-1.03-.955-1.733-.516-1.958.249-.13.382-.103.58.122zm137.789-8.104c-.427.136-.764.342-1.14.69-1.433 1.326-2.446 3.871-3.376 8.477l-.293 1.437.293 1.43c.784 3.903 1.644 6.345 2.739 7.788.783 1.037 1.796 1.604 2.509 1.41.363-.096.841-.56 1.019-.985.223-.515.236-1.301.039-1.79-.039-.078.032-.117.325-.188 1.05-.231 1.764-.927 2.159-2.093.153-.438.178-.625.178-1.256.006-.825-.051-1.096-.357-1.61-.496-.832-1.592-.96-2.178-.252-.293.354-.376.625-.382 1.25-.006.496.013.612.14.811.153.252.471.445.732.445.211 0 .548-.29.657-.56.121-.29.108-.529-.039-.78a1.112 1.112 0 01-.127-.251c0-.071.516.032.675.141.433.284.529 1.212.197 1.791-.98 1.694-3.458 1.147-5.279-1.166-.204-.257-.37-.509-.364-.547 0-.045.051-.007.109.083.242.368.751.844 1.051.999.732.367 1.305.097 1.369-.644.032-.425-.108-.715-.408-.844-.184-.078-.248-.078-.426 0-.363.148-.478.708-.179.876.102.052.166.032.319-.103l.197-.168v.226c0 .644-.917.56-1.446-.129-.286-.367-.293-.386-.14-.593.37-.502.191-1.642-.35-2.254-.121-.142-.121-.155-.013-.11.573.206 1.242.206 1.637.007.293-.155.949-.8.949-.934 0-.136-.656-.78-.949-.934-.395-.2-1.064-.2-1.637.006-.108.045-.108.032.013-.11.541-.612.72-1.752.35-2.254-.153-.206-.146-.22.147-.6.548-.689 1.439-.766 1.439-.122v.226l-.197-.168c-.153-.135-.217-.154-.319-.103-.299.168-.184.728.179.876.178.078.242.078.426 0 .3-.129.44-.418.408-.844-.064-.74-.637-1.011-1.369-.644-.3.155-.809.632-1.051.999-.058.09-.109.129-.109.083-.006-.115.695-.979 1.121-1.372.688-.65 1.402-1.056 2.185-1.262.949-.245 1.873.116 2.337.92.332.58.236 1.508-.197 1.792-.159.11-.675.212-.675.141 0-.025.057-.135.127-.25.147-.252.16-.49.039-.78-.109-.27-.446-.56-.657-.56-.261 0-.579.192-.732.444-.127.2-.146.315-.14.811.006.625.089.896.382 1.25.586.709 1.682.58 2.178-.251.306-.515.363-.786.357-1.61 0-.632-.025-.819-.178-1.257-.395-1.16-1.115-1.861-2.159-2.093-.293-.071-.364-.11-.325-.187.197-.49.184-1.276-.039-1.791-.242-.58-.878-1.063-1.369-1.044-.07 0-.242.04-.382.084zm1.153 1.527c.337.31.433.78.229 1.12-.102.168-.178.207-.56.278-.262.045-.682.2-1.026.373-1.745.87-3.223 3.202-4.261 6.706l-.172.6.172.592c1.038 3.511 2.516 5.843 4.261 6.713.344.174.764.328 1.026.373.382.071.458.11.56.277.134.232.147.477.026.76-.223.529-.727.683-1.389.432-.42-.155-.573-.303-.172-.161.37.135.669.122.955-.045.325-.187.389-.341.102-.264-.866.225-2.012-.438-2.993-1.733-.713-.94-1.541-2.944-2.248-5.463l-.421-1.481.421-1.482c.707-2.519 1.535-4.522 2.248-5.463.987-1.301 2.191-1.99 3.032-1.726.254.077.165-.097-.141-.27-.292-.168-.585-.181-.968-.046-.369.135-.229 0 .172-.16.427-.175.917-.143 1.147.07zm-2.994 6.506c.051.039.102.161.121.277.064.335-.191.896-.738 1.63l-.504.663.504.664c.547.734.802 1.295.738 1.63-.044.245-.133.335-.401.386-.172.033-.229.013-.395-.167-.229-.245-.592-.992-.923-1.888l-.23-.624.23-.625c.331-.896.694-1.643.923-1.888.166-.18.223-.2.395-.167.108.019.236.07.28.11z"/><path d="M142.061 81.07c.121.953.503 3.297.624 3.884.268 1.269.274 1.378.039 1.855-.115.225-.363.69-.555 1.024-.337.58-1.738 3.37-1.738 3.453 0 .02.133-.168.305-.419.701-1.043 1.421-1.855 2.816-3.195.369-.354.719-.74.77-.857.153-.322.064-.605-.547-1.752-.879-1.643-1.141-2.267-1.676-3.994l-.07-.225.032.225zm1.879 5.288c.198.187.204.193.077.283-.115.078-1.058.483-1.134.483-.019 0 .076-.148.204-.328.254-.36.254-.277.031-1.056-.038-.13.3.122.822.618zM9.036 81.166c0 .193-.516 1.662-.802 2.28-.16.342-.529 1.07-.822 1.617-.611 1.147-.7 1.43-.548 1.752.051.116.402.503.771.857 1.395 1.34 2.115 2.152 2.815 3.195.172.251.306.438.306.419 0-.084-1.401-2.873-1.739-3.453-.191-.335-.44-.799-.554-1.024-.236-.477-.23-.586.038-1.855.242-1.14.65-3.885.573-3.885-.019 0-.038.045-.038.097zm-1.044 4.838c-.14.418-.134.45.12.805.122.174.21.316.192.316-.07 0-1.02-.4-1.121-.47-.064-.052-.096-.117-.064-.162.064-.11.924-.844.955-.818.013.013-.025.161-.082.329z"/><path d="M5.12 87.537c-.899.412-1.147 1.88-.485 2.873l.185.283-.293.187c-.433.27-.892.741-1.07 1.089-.752 1.482-.204 3.897 1.013 4.49.318.154.84.18 1.146.045.688-.29.968-1.108.688-2.03-.16-.534-.452-.875-.803-.946-.802-.148-1.235.94-.592 1.494.248.206.166.284-.28.284-.261 0-.344-.032-.554-.226-.745-.683-.529-2.048.426-2.667.95-.612 2.395-.483 3.95.348.56.303 1.184.735 1.133.786-.013.013-.191-.084-.401-.225-.548-.374-.886-.484-1.395-.451-.382.026-.44.045-.612.238-.178.206-.19.245-.165.638.025.38.044.431.261.631.3.284.554.29.815.032.21-.212.242-.476.083-.702-.134-.2-.388-.187-.484.02-.083.186-.146.206-.204.058-.07-.194-.038-.329.128-.484.235-.225.65-.212 1.12.033.51.257.58.347.49.612-.171.502.116 1.21.727 1.784l.37.348h-.28c-.759 0-1.357.406-1.74 1.192-.127.257-.216.496-.197.528.07.11.86.476 1.191.54.446.097.943-.031 1.363-.36l.287-.219-.102.27c-.064.168-.109.484-.109.851-.006.528.013.612.185.921.102.194.261.387.363.438.172.09.172.09.077.361-.134.387-.383.792-.574.947-.337.264-.853.122-.853-.238 0-.129.006-.136.185-.026.152.09.197.09.286.019.102-.09.134-.361.064-.554-.051-.122-.35-.29-.529-.29-.076 0-.223.084-.337.187-.185.168-.21.232-.21.503 0 .386.235.792.535.921.58.238 1.375-.419 1.65-1.366.057-.206.127-.374.158-.374.077 0 .051.104-.108.529-.56 1.507-1.458 2.667-2.452 3.163-.37.18-.478.206-.962.206-.465 0-.586-.026-.866-.174-.605-.322-.943-.838-.943-1.45-.006-.463.121-.689.497-.882.28-.142.319-.116.23.129-.153.399.159.972.61 1.121.186.064.256.058.453-.045.357-.181.484-.4.484-.844 0-.438-.204-.947-.528-1.327-.752-.864-2.007-.548-2.332.586-.369 1.288.586 3.227 1.924 3.891.414.206.471.219 1.12.219h.689v.174c0 .283.134.837.267 1.101.172.348.599.805.911.967.389.206.936.193 1.319-.033.79-.47 1.375-1.623 1.68-3.304.166-.909.173-4.291.007-5.798-.267-2.487-.274-2.493-.63-3.144-1.7-3.118-2.88-4.844-4.217-6.197-.91-.915-1.515-1.353-2.248-1.617-.497-.174-1.204-.206-1.516-.064zm1.273 1.327c.16.038.134.051-.16.058-.426.006-.744.16-.935.45-.172.265-.191.387-.032.246.503-.464 1.547-.4 2.65.16 1.47.748 2.974 2.403 4.935 5.431l.542.838.063 1.513c.064 1.65-.012 3.666-.184 4.735-.249 1.54-1.058 3.041-1.911 3.55-.147.083-.42.18-.612.206l-.343.058.235.103c.433.2.79.109 1.268-.322l.28-.245-.217.258c-.28.328-.452.464-.732.579-.662.284-1.248-.109-1.248-.843 0-.316.006-.323.273-.458.415-.206 1.007-.683 1.306-1.063 1.147-1.423 1.643-3.279 1.713-6.429l.032-1.578-.337-.496c-2.548-3.691-4.994-5.424-7.248-5.134-.554.064-.637.026-.81-.432-.133-.36-.076-.67.173-.921.286-.296.79-.393 1.3-.264zm.395.103c-.02.02-.076.026-.121.006-.051-.019-.032-.038.038-.038.07-.007.108.013.083.032zm3.879 5.488c.248.187.828.819 1.382 1.514.286.361.3.4.3.786 0 .574-.116 1.675-.224 2.094-.146.567-.51.747-.84.412-.153-.154-.16-.193-.134-.69.025-.386.095-.708.26-1.197.135-.374.237-.703.237-.741 0-.039-.249-.245-.554-.451-.707-.49-1.02-.773-1.172-1.076-.153-.316-.153-.541.006-.702.178-.18.446-.161.739.051zm133.885-6.854c-.733.264-1.338.702-2.249 1.617-1.325 1.334-2.395 2.893-4.057 5.901l-.484.882-.095.76c-.281 2.223-.325 2.829-.325 4.89 0 1.733.019 2.165.121 2.706.305 1.681.891 2.834 1.681 3.304.382.226.93.239 1.319.033.312-.162.738-.619.91-.967.134-.264.268-.818.268-1.101v-.174h.688c.649 0 .707-.013 1.121-.219 1.337-.664 2.293-2.603 1.923-3.891-.325-1.134-1.579-1.45-2.331-.586-.325.38-.529.889-.529 1.327 0 .444.128.663.484.844.198.103.268.109.453.045.452-.149.764-.722.611-1.121-.089-.245-.051-.271.229-.129.376.193.504.419.497.882 0 .612-.337 1.128-.942 1.45-.281.148-.402.174-.867.174-.484 0-.592-.026-.961-.206-.994-.496-1.892-1.656-2.452-3.163-.16-.425-.185-.529-.102-.529.025 0 .095.168.153.374.273.947 1.07 1.604 1.649 1.366.299-.129.535-.535.535-.921 0-.271-.025-.335-.21-.503-.115-.103-.261-.187-.338-.187-.178 0-.477.168-.528.29-.07.193-.038.464.063.554.09.071.134.071.287-.019.178-.11.185-.11.185.039 0 .347-.529.483-.854.225-.191-.155-.439-.56-.573-.947-.095-.271-.095-.271.076-.361.102-.051.262-.244.364-.438.171-.309.191-.393.184-.921 0-.367-.044-.683-.108-.85l-.102-.27.287.218c.42.329.917.457 1.363.36.331-.064 1.121-.43 1.191-.54.019-.032-.07-.27-.198-.528-.382-.786-.981-1.192-1.739-1.192h-.28l.37-.348c.611-.573.898-1.282.726-1.784-.089-.265-.019-.355.49-.612.471-.245.885-.258 1.121-.033.166.155.198.29.127.483-.057.149-.121.13-.203-.057-.096-.207-.351-.22-.484-.02-.16.226-.128.49.082.702.262.258.516.252.816-.032.216-.2.235-.251.261-.631.025-.393.013-.432-.166-.638-.172-.193-.229-.212-.611-.238-.51-.032-.847.077-1.395.45-.459.31-.548.284-.121-.038.739-.547 1.751-.999 2.611-1.172.879-.174 1.612-.071 2.191.302.956.619 1.172 1.984.427 2.667-.21.194-.293.226-.554.226-.446 0-.529-.078-.28-.284.261-.225.35-.522.273-.87-.07-.315-.197-.476-.458-.585-.491-.207-.987.167-1.21.908-.351 1.172.191 2.12 1.216 2.12.433 0 .707-.13 1.064-.497.586-.593.911-1.5.911-2.525 0-1.23-.446-2.087-1.414-2.693l-.293-.187.184-.283c.663-.999.408-2.474-.496-2.873-.325-.142-1-.11-1.503.064zm1.114 1.263c.306.09.612.4.663.683.044.257-.102.721-.287.889-.096.083-.185.096-.586.045-2.255-.29-4.7 1.443-7.248 5.134l-.338.496.032 1.578c.07 3.15.567 5.006 1.714 6.429.299.38.891.857 1.312 1.063.261.135.267.142.267.458 0 1.12-1.185 1.262-2.006.244l-.185-.238.274.245c.471.431.834.522 1.267.322l.236-.103-.344-.058c-.936-.148-1.713-1.082-2.274-2.725-.363-1.05-.535-3.337-.433-5.766l.064-1.513.541-.844c1.459-2.249 2.962-4.09 3.943-4.812.503-.374 1.229-.76 1.764-.94.688-.233 1.522-.162 1.879.167.159.141.14.019-.032-.245-.191-.29-.509-.445-.936-.451-.293-.007-.319-.02-.159-.058.286-.071.605-.071.872 0zm-1.114.103c-.02.02-.077.026-.121.006-.051-.019-.032-.038.038-.038.07-.007.108.013.083.032zm-3.293 5.437c.159.161.159.386.006.702-.153.303-.465.586-1.172 1.076-.306.206-.554.412-.554.45 0 .04.102.368.236.742.165.49.235.811.261 1.198.025.496.019.534-.134.69-.331.334-.694.154-.841-.413-.108-.419-.223-1.52-.223-2.094 0-.386.013-.425.3-.786 1.229-1.54 1.758-1.932 2.121-1.565z"/><path d="M13.985 102.843c-.032 1.378-.057 1.591-.401 3.382-.204 1.063-.179 1.295.172 1.597.133.123.681.419 1.216.664 1.07.489 2.306 1.211 3.077 1.797.28.213.566.425.636.477.134.09-2.337-2.403-3.286-3.324-.624-.593-.624-.606-.758-1.984-.057-.593-.535-3.724-.599-3.93-.012-.038-.038.561-.057 1.321zm.503 3.813c.007.419.064.509.535.838.153.109.147.109-.382.077-.7-.045-.828-.071-.828-.187 0-.109.599-1.127.662-1.127.007 0 .013.18.013.399zm122.389-3.523a60.65 60.65 0 00-.338 2.351c-.127 1.34-.134 1.359-.751 1.952-.949.921-3.421 3.414-3.287 3.324.07-.052.357-.264.637-.477.771-.586 2.006-1.308 3.076-1.797.535-.245 1.083-.541 1.217-.664.363-.309.376-.521.14-1.771-.318-1.675-.338-1.836-.382-3.24l-.038-1.353-.274 1.675zm.204 3.678c.159.264.293.522.293.573 0 .116-.128.142-.828.187-.529.032-.535.032-.383-.077.472-.329.529-.419.535-.831 0-.219.026-.38.051-.367.026.012.172.244.332.515z"/><path d="M12.743 108.699c-.63.219-.968.702-.962 1.391 0 .696.344 1.379.898 1.804l.236.18-.261.296c-.14.161-.35.484-.459.715-.522 1.121-.133 2.803.892 3.853.484.489.936.721 1.414.721 1.312 0 1.783-1.359.892-2.577-.192-.27-.612-.515-.873-.515-.42 0-.77.335-.77.741 0 .386.299.792.662.915l.184.058-.184.122c-.128.09-.293.129-.542.129-.445 0-.713-.187-.98-.683-.16-.296-.185-.419-.185-.831 0-.393.032-.541.165-.805.338-.657.93-1.082 1.816-1.302.522-.128 1.72-.141 2.28-.025.618.129 1.305.341 1.305.412 0 .032-.05.039-.108.013-.548-.232-1.216-.29-1.7-.155-.293.084-.586.355-.65.606-.115.457.338 1.127.77 1.127.3 0 .453-.084.574-.328.114-.219.083-.406-.115-.625-.23-.251-.49-.148-.49.206 0 .18 0 .187-.128.071-.184-.168-.165-.49.032-.677.217-.206.77-.251 1.268-.103l.356.11v.257c0 .638.593 1.237 1.625 1.637.114.045.108.058-.064.096-.529.123-1.045.535-1.249.999-.12.277-.273 1.159-.216 1.25.05.09.98.219 1.28.173a1.84 1.84 0 00.503-.141c.249-.116.637-.483.796-.747l.109-.187.031.515c.051.85.49 1.585 1.051 1.739.172.045.179.065.172.432-.012.747-.299 1.25-.726 1.25-.184 0-.274-.039-.344-.142-.14-.2-.133-.213.128-.213.305 0 .414-.154.28-.405-.197-.348-.58-.413-.898-.149-.121.097-.153.187-.153.438 0 .393.204.696.586.87.363.161.63.077.943-.283.286-.342.433-.799.44-1.385.006-.258.031-.471.063-.471.083 0 0 1.295-.115 1.836-.305 1.443-.98 2.513-1.834 2.899-.943.438-1.98.11-2.42-.766-.236-.471-.077-1.038.35-1.276.102-.051.115-.045.076.071-.165.535.675 1.205 1.179.94a.9.9 0 00.446-.74c-.007-.748-.969-1.675-1.752-1.675-.108 0-.35.077-.535.167-.599.303-.86.921-.707 1.662.223 1.102 1.312 2.281 2.478 2.68.675.226 1.4.155 2.254-.219.077-.039.108-.026.108.045 0 .219.268.709.555 1.018.86.934 2.044.915 2.63-.039.07-.116.185-.38.255-.579.656-1.933-.096-5.09-2.37-9.953l-.343-.741-1.058-.973c-2.503-2.299-4.229-3.581-5.796-4.29-1.21-.548-2.337-.709-3.095-.444zm1.306 1.172c-.682.097-1.058.412-1.153.96l-.038.225.223-.264c.318-.386.751-.56 1.484-.593 1.108-.051 2.159.213 3.292.838.981.535 2.49 1.572 3.74 2.57l1.063.844.267.683c.688 1.791 1.319 3.955 1.56 5.36.262 1.533-.152 3.459-.878 4.09-.147.123-.287.226-.312.226-.026 0-.128.032-.23.071l-.178.077.21.045c.452.103.968-.206 1.191-.709.16-.354.191-.283.038.078-.146.341-.465.728-.713.863-.395.206-.968.038-1.16-.342-.177-.36-.177-.502-.005-.67.229-.212.675-.856.872-1.249.338-.696.497-1.533.503-2.629 0-1.352-.216-2.583-.751-4.341-.427-1.392-.446-1.43-1.038-1.888-.981-.747-2.14-1.488-3.032-1.932-1.433-.709-2.363-.967-3.484-.967-.745 0-1.268.11-1.86.38l-.407.187-.198-.122c-.407-.251-.567-.805-.357-1.218.179-.354.828-.631 1.465-.631.21 0 .185.013-.114.058zm5.993 4.161c.255.129.758.426 1.121.664l.656.432.198.766c.445 1.727.439 2.255-.026 2.371-.223.058-.433-.09-.611-.432-.121-.238-.14-.399-.166-1.282l-.025-1.018-.746-.232c-.828-.257-1.19-.444-1.433-.74-.223-.264-.216-.522.007-.703.223-.173.4-.141 1.025.174zm116.491-5.327c-1.758.438-3.93 1.913-7.006 4.754-1.026.947-1.37 1.308-.796.837 1.617-1.339 3.382-2.589 4.598-3.259 1.134-.625 2.185-.889 3.293-.838.732.033 1.166.207 1.484.593l.223.264-.038-.225c-.096-.541-.465-.857-1.153-.967l-.37-.058.446.033c.554.038 1.07.277 1.249.567.248.412.095.998-.332 1.256l-.197.122-.408-.187c-1.108-.509-2.464-.515-3.961-.019-1.159.386-2.733 1.282-4.191 2.377-.841.631-.809.586-1.261 2.049-.809 2.634-.968 4.625-.503 6.293.172.625.7 1.527 1.127 1.926.172.168.172.31-.006.67-.191.38-.765.548-1.159.342-.249-.136-.567-.522-.714-.863-.153-.361-.121-.432.038-.078.223.503.739.812 1.191.709l.211-.045-.179-.078a1.288 1.288 0 00-.229-.07c-.134 0-.58-.484-.758-.825-.433-.825-.624-2.364-.433-3.491.242-1.405.758-3.202 1.452-5.051.166-.457.299-.844.287-.857-.026-.025-.739 1.527-1.198 2.616-1.649 3.891-2.082 6.654-1.293 8.297.535 1.121 1.796 1.224 2.72.219.306-.329.548-.773.554-.999 0-.083.026-.103.115-.07.624.27.942.354 1.388.354.873 0 1.714-.412 2.465-1.218 1.146-1.236 1.223-2.718.166-3.253-.185-.09-.427-.167-.535-.167-.784 0-1.745.927-1.752 1.675a.9.9 0 00.446.74c.51.265 1.344-.405 1.172-.947-.038-.135-.038-.141.108-.045.421.277.548.812.319 1.269-.433.864-1.478 1.186-2.414.754-.917-.419-1.618-1.61-1.892-3.214-.102-.599-.127-1.521-.044-1.521.025 0 .044.213.05.471.007.257.058.618.115.792.134.412.484.831.771.928.42.141.993-.258 1.089-.767.127-.618-.618-1.024-.994-.541-.235.303-.108.573.255.522.217-.033.229-.007.089.193-.07.103-.159.142-.344.142-.426 0-.713-.503-.726-1.25-.006-.367 0-.387.172-.432.561-.154 1-.889 1.051-1.739l.032-.515.108.186c.159.265.548.632.796.748.115.058.344.122.504.141.299.046 1.229-.083 1.28-.173.057-.091-.096-.973-.217-1.25-.204-.464-.72-.876-1.248-.999-.172-.038-.179-.051-.064-.096.752-.29 1.274-.683 1.503-1.141.064-.128.121-.354.121-.496v-.257l.357-.11c.497-.148 1.051-.103 1.267.103.198.187.217.509.032.677-.127.116-.127.109-.127-.071 0-.367-.261-.458-.51-.187-.356.38-.082.934.459.934.204 0 .299-.045.465-.212.242-.245.388-.658.325-.915-.166-.67-1.306-.889-2.344-.451-.064.026-.115.019-.115-.013 0-.077.739-.303 1.338-.412.229-.045.732-.078 1.114-.078 1.478 0 2.472.471 2.949 1.405.134.264.166.412.166.805 0 .412-.026.535-.185.831-.242.451-.522.663-.923.702-.249.019-.357 0-.548-.122l-.242-.148.191-.058c.363-.123.662-.529.662-.915 0-.406-.35-.741-.77-.741-.262 0-.682.245-.873.515-.892 1.218-.42 2.577.892 2.577.968 0 2.082-1.179 2.439-2.577.172-.657.115-1.462-.134-1.997a3.69 3.69 0 00-.458-.715l-.261-.296.235-.18a2.312 2.312 0 00.898-1.804c.007-.702-.369-1.218-1.025-1.417-.44-.129-1.242-.116-1.847.032zm-4.357 5.16c.325.258.14.721-.433 1.05-.14.09-.592.264-1 .386l-.745.232-.025 1.018c-.026.883-.045 1.044-.166 1.282-.178.341-.388.49-.611.432-.465-.116-.472-.645-.026-2.365l.198-.76.452-.309c.974-.657 1.802-1.095 2.083-1.101.057 0 .178.058.273.135z"/><path d="M24.99 119.624c.504 1.456.733 2.454.924 3.994.147 1.205.153 1.25.293 1.585.166.386.28.425 2.376.708 1.038.135 2.35.451 3.089.728.242.097.452.161.459.148.038-.038-2.408-1.314-3.331-1.739-.485-.225-1-.47-1.147-.548-.306-.161-.35-.238-.949-1.571-.56-1.237-1.885-3.801-1.713-3.305zm2.517 5.153l.414.142-.516.135c-.707.194-.854.187-.854-.032 0-.096.064-.406.14-.689l.134-.522.14.419.134.412.408.135zm98.033-4a58.5 58.5 0 00-1.051 2.145 45.91 45.91 0 01-.541 1.16c-.16.309-.236.354-1.561.966-.923.425-3.369 1.701-3.331 1.739.006.013.217-.051.459-.148.738-.277 2.05-.593 3.089-.728 2.07-.283 2.197-.315 2.375-.689.109-.232.147-.477.363-2.081.134-1.05.446-2.377.72-3.124.096-.245.159-.457.147-.464-.013-.013-.313.541-.669 1.224zm-.924 4.11c.038.303.032.309-.14.309-.102 0-.414-.064-.694-.142l-.516-.135.414-.142.408-.135.133-.412.128-.406.114.38c.064.206.134.515.153.683z"/><path d="M27.411 126.162c-1.07.174-1.802.632-2.006 1.263-.108.322-.045.844.146 1.224.268.541 1.064 1.179 1.472 1.185.082 0 .102.026.07.11-.268.638-.35.96-.35 1.411 0 .882.407 1.732 1.203 2.493 1.223 1.159 2.688 1.236 3.216.167.09-.187.166-.432.166-.541 0-.792-.917-1.765-1.656-1.772a.89.89 0 00-.732.451c-.262.516.4 1.36.936 1.186.134-.039.14-.039.044.109-.273.425-.802.554-1.254.322-.854-.438-1.172-1.494-.745-2.441.414-.928 1.592-1.636 3.178-1.913.592-.104 1.503-.129 1.503-.052 0 .032-.21.052-.465.058a3.284 3.284 0 00-.783.116c-.408.135-.822.49-.918.779-.14.426.255 1.005.758 1.102.612.129 1.013-.625.535-1.005-.299-.238-.566-.109-.516.258.032.219.007.232-.19.09-.102-.071-.14-.161-.14-.348 0-.432.496-.721 1.235-.734.363-.007.382 0 .427.174.152.567.878 1.011 1.72 1.063l.509.032-.185.109c-.261.161-.624.554-.739.805a1.91 1.91 0 00-.14.509c-.044.303.083 1.244.172 1.295.09.058.962-.096 1.236-.219.458-.206.866-.728.987-1.262.038-.174.05-.181.095-.065.287.76.676 1.289 1.128 1.52a1.3 1.3 0 00.49.123h.255l.108.361c.147.502.102 1.063-.102 1.282-.184.199-.503.219-.668.032-.115-.129-.109-.129.07-.129.363 0 .452-.264.184-.515-.375-.361-.923-.084-.923.463 0 .207.044.303.21.471.242.244.65.393.904.328.663-.167.88-1.32.446-2.377-.025-.058-.019-.109.013-.109.076 0 .3.747.408 1.352.044.232.076.735.076 1.128 0 1.494-.465 2.499-1.388 2.982-.262.136-.408.168-.797.168-.407 0-.528-.026-.821-.187-.446-.245-.656-.528-.694-.934-.02-.251 0-.361.12-.554l.147-.245.057.193c.121.368.523.67.905.67.401 0 .732-.354.732-.779 0-.264-.242-.689-.51-.883-1.203-.902-2.547-.425-2.547.902 0 .979 1.166 2.107 2.548 2.467.65.174 1.445.116 1.974-.135a3.59 3.59 0 00.707-.464l.293-.264.178.239c.42.56 1.096.908 1.784.908 1.547.006 1.962-1.791.936-4.104-.764-1.726-2.58-4.155-4.974-6.648-.389-.405-.452-.496.796 1.128.853 1.108 1.802 2.538 2.306 3.478.617 1.147.878 2.203.828 3.331-.032.721-.185 1.121-.574 1.481l-.267.245.223-.038c.535-.104.84-.477.949-1.166l.057-.374-.032.451c-.038.56-.274 1.082-.56 1.262-.408.252-.987.097-1.242-.335l-.121-.199.184-.412c.504-1.121.51-2.493.02-4.007-.383-1.173-1.268-2.764-2.35-4.239-.625-.85-.58-.818-2.026-1.276-2.605-.818-4.573-.979-6.223-.509-.618.174-1.51.709-1.904 1.141-.166.174-.306.174-.662-.007-.376-.193-.542-.773-.338-1.172.134-.251.516-.573.853-.722.357-.154.427-.122.077.039-.497.225-.803.747-.7 1.205l.044.212.076-.18a1.27 1.27 0 00.07-.232c0-.135.478-.586.816-.767.815-.438 2.337-.631 3.452-.438 1.388.245 3.165.767 4.993 1.469.452.168.834.303.847.29.026-.026-1.51-.747-2.586-1.211-2.968-1.289-5.553-1.9-7.044-1.669zm7.203 3.357c.204.032.72.154 1.134.264l.758.199.427.664c.484.754.873 1.514.93 1.797.025.142 0 .245-.102.374-.178.225-.433.232-.694.006-.293-.244-.478-.612-.733-1.449l-.23-.754-1.005-.026c-.873-.025-1.032-.045-1.268-.167-.337-.18-.484-.393-.427-.618.083-.348.427-.432 1.21-.29zm87.792-3.382c-2.07.257-4.07.921-7.343 2.441-.516.238-.93.451-.918.464.013.013.402-.122.867-.296 1.789-.69 3.605-1.218 4.974-1.463 1.516-.264 3.42.155 4.044.889.121.148.223.29.223.316 0 .026.032.129.07.232l.077.18.044-.212c.102-.458-.203-.98-.7-1.205-.351-.161-.281-.193.076-.039.338.149.72.471.854.722.203.399.038.979-.338 1.172-.357.181-.497.181-.662.007-.211-.232-.847-.683-1.236-.883-1.255-.631-3.267-.683-5.509-.135-.752.18-2.159.618-2.58.799-.204.09-.369.244-.668.637-.739.992-1.472 2.165-1.911 3.067-.701 1.449-.956 2.39-.956 3.523 0 .754.109 1.282.376 1.882l.185.412-.121.199c-.255.432-.834.587-1.242.335-.287-.18-.522-.702-.561-1.262l-.031-.451.057.374c.108.695.42 1.069.955 1.166l.223.038-.261-.225c-.382-.322-.554-.76-.586-1.501-.051-1.121.21-2.184.828-3.331.662-1.23 1.898-3.014 3.223-4.657.465-.574.108-.226-.828.811-2.287 2.532-3.56 4.297-4.267 5.888-1.026 2.313-.612 4.11.936 4.104.688 0 1.363-.348 1.783-.908l.179-.239.293.264c.159.142.477.355.706.464 1.109.528 2.771.135 3.809-.902.484-.489.714-.947.714-1.43 0-1.327-1.344-1.804-2.548-.902-.268.194-.51.619-.51.883 0 .425.332.779.733.779.382 0 .783-.302.904-.67l.058-.186.121.186c.089.129.127.297.127.548 0 .451-.185.721-.675.992-.293.161-.414.187-.822.187-.388 0-.535-.032-.796-.168-.65-.341-1.07-.94-1.286-1.836-.128-.528-.141-1.739-.026-2.306.127-.625.338-1.32.408-1.32.032 0 .038.051.012.109-.229.554-.286 1.23-.152 1.72.082.296.35.593.598.657.452.116 1.115-.341 1.115-.779 0-.303-.083-.458-.325-.58-.217-.116-.401-.084-.611.116-.255.232-.153.496.197.496.178 0 .185 0 .07.129-.166.187-.484.167-.669-.032-.203-.22-.248-.78-.102-1.282l.109-.361h.254c.631 0 1.223-.599 1.618-1.643.045-.116.058-.109.096.065.121.534.528 1.056.987 1.262.274.123 1.146.277 1.236.219.089-.051.216-.992.172-1.295a1.917 1.917 0 00-.141-.509c-.114-.251-.477-.644-.738-.805l-.185-.109.509-.032c.841-.052 1.567-.496 1.72-1.063.045-.174.064-.181.427-.174.739.013 1.235.302 1.235.734 0 .187-.038.277-.14.348-.197.142-.21.135-.21-.129 0-.309-.153-.419-.401-.283-.344.199-.408.586-.147.908.096.122.185.155.433.155.389 0 .688-.207.86-.593.16-.367.077-.638-.28-.954-.338-.289-.79-.438-1.369-.444-.255-.006-.465-.026-.465-.058 0-.077.911-.052 1.503.052 1.586.277 2.764.985 3.178 1.913.433.953.108 2.003-.758 2.448-.465.238-1.025.077-1.261-.355-.051-.103-.045-.116.07-.077.529.168 1.191-.683.93-1.192a.89.89 0 00-.732-.451c-.739.007-1.656.98-1.656 1.772 0 .109.076.354.165.541.3.606.911.87 1.643.715 1.09-.225 2.255-1.327 2.65-2.506.223-.683.153-1.417-.217-2.28-.038-.078-.025-.11.045-.11.408 0 1.223-.644 1.49-1.179.548-1.095-.006-2.029-1.414-2.396-.394-.103-1.42-.167-1.815-.122zm-4.796 3.407c.331.232.217.632-.254.883-.236.122-.395.142-1.268.167l-1.006.026-.23.754c-.254.837-.439 1.205-.732 1.449-.261.226-.516.219-.694-.006-.102-.129-.128-.232-.102-.374.057-.283.446-1.043.93-1.797l.426-.657.663-.18c1.325-.361 2.013-.445 2.267-.265z"/><path d="M40.824 133.152c.051.071.262.361.472.644.58.78 1.293 2.029 1.777 3.112.242.541.535 1.095.656 1.23.305.367.516.38 1.751.142 1.656-.322 1.815-.342 3.204-.387l1.337-.039-1.656-.277a60.924 60.924 0 00-2.324-.341c-1.325-.129-1.344-.135-1.93-.76-.91-.96-3.376-3.459-3.287-3.324zm3.503 4.052c.147.167.204.187.548.193.217 0 .376.026.363.052-.05.083-.987.631-1.076.631-.115 0-.14-.129-.185-.838-.032-.534-.032-.541.077-.386.057.09.184.245.273.348zm64.672-2.712c-.77.792-1.637 1.681-1.923 1.984-.586.625-.605.631-1.93.76-.369.039-1.414.193-2.325.341l-1.656.277 1.338.039c1.325.039 1.643.077 3.375.419 1.051.206 1.281.18 1.58-.174.121-.135.414-.689.656-1.231.484-1.082 1.197-2.331 1.777-3.111.548-.734.548-.741.529-.741-.013 0-.65.644-1.421 1.437zm-1.783 2.763c-.051.703-.083.825-.191.825-.089 0-1.026-.548-1.077-.631-.012-.026.141-.052.351-.052.407-.006.535-.077.764-.457.07-.116.146-.213.159-.213.013 0 .013.238-.006.528z"/><path d="M48.015 138.054c-2.178.258-3.58.876-4.127 1.817-.223.386-.236.94-.032 1.333.16.316.611.747.956.921.26.136.808.271 1.089.271h.171v.696c0 .657.013.715.217 1.133.656 1.353 2.573 2.32 3.847 1.946 1.121-.329 1.433-1.598.58-2.358-.376-.328-.88-.535-1.312-.535-.44 0-.656.129-.835.49-.102.2-.108.271-.044.457.146.458.713.773 1.108.619.242-.09.267-.052.127.232-.19.38-.414.509-.872.502-.605 0-1.115-.341-1.433-.953-.147-.284-.172-.406-.172-.876 0-.49.025-.599.203-.973.49-1.005 1.637-1.913 3.128-2.48.42-.161.522-.187.522-.11 0 .033-.166.103-.37.161-.936.277-1.585 1.083-1.35 1.669.128.303.529.541.911.541.268 0 .331-.026.497-.213.102-.116.185-.264.185-.341 0-.18-.166-.483-.287-.535-.191-.071-.459-.038-.548.065-.07.09-.07.135.02.29.108.18.108.186-.039.186-.344 0-.478-.534-.223-.863.153-.193.554-.444.936-.58.268-.096.268-.096.357.078.051.103.242.264.433.367.306.174.389.193.911.187.363 0 .675-.045.84-.11l.268-.103-.216.29c-.325.425-.453.928-.357 1.379.064.335.427 1.133.535 1.204.032.02.267-.071.522-.199.777-.387 1.179-.992 1.179-1.759v-.284l.343.374c.567.619 1.268.908 1.765.734.26-.09.35-.019.605.497.242.476.255.895.032 1.133-.153.168-.287.2-.478.129-.146-.058-.127-.122.057-.206.204-.097.217-.354.02-.49-.223-.161-.485-.128-.695.084-.255.264-.248.522.032.825.197.219.248.238.624.264.389.026.427.013.63-.168.192-.174.21-.232.236-.618.032-.515-.076-.857-.446-1.411-.305-.464-.28-.554.039-.122.541.747.987 1.771 1.159 2.641.172.889.07 1.63-.3 2.216-.61.966-1.961 1.185-2.636.432-.191-.213-.223-.297-.223-.561 0-.451.076-.535.28-.283.223.264.516.354.86.277.662-.149.847-.831.35-1.327-.427-.438-1.51-.612-2.038-.335-.261.135-.535.425-.637.67-.133.309-.108.837.045 1.159.586 1.231 2.974 1.785 4.44 1.024.343-.18.808-.644 1.075-1.082l.185-.296.28.187c.988.67 2.446.412 2.841-.503.14-.328.108-1.011-.064-1.52-.26-.741-.694-1.353-1.598-2.274-1.134-1.147-2.44-2.113-4.554-3.356-1.956-1.153-2.108-1.231-2.65-1.302-1.847-.257-2.942-.341-4.77-.36-1.051-.013-2.013-.007-2.134.006zm6.376.406l.993.051.822.548c2.987 1.978 4.624 3.498 5.363 4.986.554 1.115.617 2.171.159 2.68-.14.161-.02.142.242-.032.286-.194.44-.516.446-.947.006-.297.019-.322.057-.161.127.515.032 1.024-.261 1.314-.249.251-.554.309-.91.174-.447-.174-.491-.258-.428-.799.287-2.3-1.414-4.767-5.076-7.35l-.49-.342-1.56.033c-2.16.051-3.465.264-4.74.773-1.222.489-2.21 1.333-2.668 2.28-.134.271-.14.277-.452.277-1.108 0-1.248-1.198-.242-2.029l.236-.187-.243.277c-.426.477-.516.844-.318 1.282l.102.238.057-.348a2.08 2.08 0 01.204-.618c.522-.895 2.096-1.739 3.669-1.958 1.292-.181 3.241-.239 5.038-.142zm1.057 1.404c1.522 1.244 1.91 1.778 1.547 2.145-.159.161-.382.161-.694.007-.299-.155-.58-.47-1.063-1.185-.204-.31-.408-.561-.446-.561-.038 0-.363.103-.733.238-.484.168-.802.239-1.184.265-.49.025-.529.019-.682-.136-.35-.354-.127-.741.503-.876.504-.109 1.21-.18 1.86-.193l.516-.006.376.302zm44.125-1.81c-.14.013-.586.058-.987.09a84.19 84.19 0 00-1.77.2l-1.039.122-.873.497c-2.98 1.681-4.515 2.763-5.84 4.103-.904.921-1.337 1.533-1.599 2.274-.172.509-.204 1.192-.063 1.52.394.915 1.853 1.173 2.84.503l.28-.187.185.296c.599.979 1.446 1.43 2.663 1.43 1.012 0 1.91-.328 2.496-.921.363-.361.49-.638.49-1.076 0-1.037-.936-1.584-2.095-1.23-.528.161-.866.457-.936.812-.147.811.93 1.249 1.477.599.204-.252.28-.168.28.283 0 .264-.031.348-.222.561-.675.753-2.025.534-2.637-.432-.605-.96-.478-2.422.344-3.994.3-.567.726-1.198.777-1.147.013.013-.083.194-.223.406-.37.554-.478.896-.446 1.411.026.387.045.444.236.618.204.181.242.194.63.168.376-.026.427-.045.625-.264.28-.303.286-.561.032-.825-.21-.212-.472-.245-.695-.084-.197.136-.184.393.02.49.184.084.203.148.057.206-.191.071-.325.039-.478-.129-.223-.238-.21-.657.032-1.133.255-.516.344-.587.605-.496.497.174 1.197-.116 1.764-.735l.344-.373v.283c0 .767.401 1.372 1.178 1.759.255.128.49.219.523.199.108-.071.47-.869.535-1.204.095-.451-.032-.954-.357-1.379l-.217-.29.268.103c.165.065.478.11.84.11.523.006.606-.013.911-.187.191-.103.382-.264.433-.367.09-.174.09-.174.357-.077.382.135.784.386.936.579.262.342.121.864-.235.864-.128 0-.134-.007-.026-.187.089-.155.089-.2.019-.29-.089-.103-.356-.135-.547-.065-.121.052-.287.355-.287.535 0 .077.083.226.185.342.165.186.229.212.497.212.382 0 .783-.238.91-.541.236-.586-.414-1.391-1.35-1.668-.204-.058-.369-.129-.369-.162 0-.077.102-.051.522.11 1.49.567 2.637 1.475 3.127 2.48.178.374.204.483.204.973 0 .47-.026.592-.172.876-.318.612-.828.953-1.433.953-.459.007-.682-.122-.873-.502-.14-.284-.114-.322.128-.232.395.155.962-.161 1.108-.618.064-.187.057-.258-.045-.458-.178-.361-.394-.489-.834-.489-.433 0-.936.206-1.312.534-.853.76-.541 2.029.58 2.358 1.273.374 3.191-.593 3.847-1.945.203-.419.216-.477.216-1.134v-.696h.172c.28 0 .828-.135 1.089-.271.344-.173.796-.605.956-.921a1.47 1.47 0 00-.032-1.333c-.465-.793-1.612-1.398-3.236-1.694-.465-.091-1.025-.116-2.42-.129-1-.013-1.93-.007-2.07.006zm.86.412c1.923.136 2.764.348 3.853.986.841.496 1.319 1.069 1.42 1.727l.058.347.102-.238c.197-.438.108-.799-.319-1.282l-.242-.283.255.219c.325.283.459.457.573.74.28.67-.108 1.263-.834 1.263-.312 0-.319-.006-.452-.277-.204-.419-.676-1.018-1.051-1.32-1.408-1.16-3.242-1.662-6.357-1.733l-1.56-.033-.49.342c-3.65 2.577-5.363 5.05-5.077 7.331.07.56.026.644-.426.818-.803.309-1.427-.477-1.172-1.488.038-.161.05-.136.057.161.006.431.16.754.446.947.261.174.382.193.242.032-.325-.361-.395-1.205-.166-1.9.179-.541.56-1.276.93-1.785.713-.992 2.535-2.512 4.758-3.987l.834-.548.828-.039c1.344-.07 2.803-.064 3.79 0zm-2.86 1.16c1.185.122 1.586.296 1.586.689 0 .084-.076.232-.166.322-.152.155-.19.161-.681.136-.382-.026-.7-.097-1.185-.264-.37-.136-.694-.239-.732-.239-.038 0-.242.251-.446.561-.484.715-.764 1.03-1.064 1.185-.312.155-.535.155-.694-.006-.363-.368.026-.902 1.548-2.146.356-.29.395-.302.777-.302.223 0 .694.032 1.057.064zm-8.751 5.682c-.02.051-.038.032-.038-.039-.007-.071.012-.109.032-.084.019.02.025.078.006.123z"/><path d="M60.48 141.475c1.044.721 1.961 1.539 2.885 2.557.363.413.79.838.942.947.478.348.484.348 2.624-.792 1.045-.561 1.937-.934 2.828-1.192.338-.09.599-.18.593-.187-.032-.038-3.28.49-4.007.645-1.26.27-1.369.277-1.84.038a29.593 29.593 0 01-1.013-.56c-.567-.335-3.331-1.759-3.414-1.759-.019 0 .16.135.401.303zm4.662 2.538c.159-.045.35-.103.42-.122.096-.026.057.045-.147.296-.452.547-.643.734-.707.696-.05-.033-.515-1.141-.515-1.231 0-.019.146.078.324.206.325.232.332.232.625.155zm24.24-1.984c-.91.47-1.77.934-1.917 1.024-.14.09-.465.271-.726.406-.535.271-.611.271-1.891-.006a46.495 46.495 0 00-1.975-.348 66.134 66.134 0 01-1.637-.258c-.407-.064-.573-.045-.216.032.446.097 1.745.567 2.337.844.338.161 1.058.535 1.599.831 1.134.618 1.414.709 1.732.554.115-.051.497-.406.847-.779 1.325-1.411 2.128-2.139 3.16-2.848.248-.174.426-.309.394-.309-.025 0-.796.387-1.707.857zm-2.58 2.139c-.107.277-.235.56-.286.631-.089.129-.095.122-.28-.077-.49-.529-.739-.87-.611-.831.77.219.688.225 1.025-.026.172-.123.319-.219.331-.213.007.007-.07.239-.178.516z"/><path d="M74.014 142.009c-4.516.96-6.923 1.952-8.23 3.395-.356.4-.662.973-.732 1.372-.063.381.07.748.389 1.096.567.612 1.548.811 2.395.483.07-.026.114.051.172.335.235 1.063.923 1.784 2.076 2.183.433.155.618.181 1.242.181.815.006 1.083-.052 1.592-.361.822-.502.95-1.61.249-2.203-.35-.296-.618-.38-1.236-.387-.49-.006-.605.013-.802.142-.249.155-.44.477-.44.741 0 .213.287.554.554.664.287.122.523.109.77-.039.115-.071.224-.129.25-.129.07 0-.033.522-.14.683-.281.438-1.198.535-1.772.2-1.674-.992-1.133-3.498 1.153-5.341.255-.206.503-.373.542-.367.044 0 .006.052-.083.11-.363.244-.834.76-.987 1.062-.363.741-.096 1.321.637 1.385.42.033.707-.109.834-.412.076-.187.076-.251 0-.431-.147-.368-.7-.484-.866-.181-.051.103-.032.168.102.322l.165.2h-.223c-.636 0-.554-.928.128-1.462.363-.29.382-.297.586-.142.496.374 1.624.193 2.229-.354.14-.123.153-.123.108-.013-.204.58-.204 1.256-.006 1.655.153.297.79.96.923.96.134 0 .771-.663.924-.96.197-.399.197-1.075-.007-1.655-.044-.11-.031-.11.109.013.605.547 1.732.728 2.229.354.204-.155.216-.148.592.148.682.554.758 1.456.121 1.456h-.223l.166-.2c.134-.154.153-.219.102-.322-.166-.303-.72-.187-.866.181-.077.18-.077.244 0 .431.127.303.414.445.834.412.732-.064 1-.644.637-1.385-.153-.302-.624-.818-.987-1.062-.09-.058-.128-.11-.083-.11.114-.006.968.702 1.356 1.134.644.696 1.045 1.417 1.249 2.209.242.96-.115 1.894-.91 2.365-.574.335-1.491.238-1.772-.2-.108-.161-.21-.683-.14-.683.026 0 .134.058.249.129.248.148.484.161.77.039.268-.11.555-.451.555-.664 0-.264-.192-.586-.44-.741-.197-.129-.312-.148-.803-.142-.617.007-.885.091-1.235.387-.7.593-.573 1.701.248 2.203.51.309.777.367 1.593.361.624 0 .808-.026 1.242-.181 1.146-.399 1.84-1.127 2.07-2.183.07-.297.108-.368.184-.329.484.2 1.261.187 1.77-.039.421-.18.88-.663.975-1.03.191-.722-.37-1.746-1.395-2.538-1.426-1.108-3.84-1.978-7.7-2.77-.783-.168-1.44-.297-1.465-.29-.025 0-.713.148-1.528.315zm3.076.161c2.465.716 4.446 1.553 5.37 2.268 1.28.992 1.935 2.152 1.713 3.028-.077.29.076.225.26-.103.166-.29.179-.593.045-.967-.14-.405.007-.251.16.174.248.67.095 1.179-.427 1.405-.28.122-.523.109-.752-.026-.166-.103-.204-.181-.274-.567-.044-.264-.197-.689-.37-1.037-.859-1.765-3.165-3.26-6.63-4.31l-.592-.174-.586.174c-3.47 1.05-5.776 2.545-6.636 4.31-.172.348-.325.773-.37 1.037-.07.386-.108.464-.273.567-.23.135-.472.148-.752.026-.522-.226-.675-.735-.427-1.405.153-.425.3-.579.16-.174-.134.374-.122.677.044.967.172.309.344.399.267.141-.26-.85.42-2.067 1.707-3.066.542-.419 1.81-1.05 3.058-1.52.758-.284 3.579-1.153 3.783-1.16.044-.006.726.181 1.522.412zm-.86.909c.88.335 1.605.702 1.847.927.179.168.198.226.166.4-.051.27-.14.361-.382.406-.332.064-.886-.194-1.612-.748l-.656-.509-.656.509c-.726.554-1.28.812-1.611.748-.242-.045-.331-.136-.382-.406-.032-.174-.013-.232.165-.4.115-.109.427-.302.695-.431.49-.239 1.636-.709 1.757-.722.039 0 .338.097.67.226z"/></svg><svg viewBox="0 0 54 44" id="quotes" xmlns="http://www.w3.org/2000/svg"><path d="M53.989 12.305C53.989 5.73 48.233.402 41.133.402S28.279 5.731 28.279 12.305c0 6.573 5.755 11.902 12.854 11.902 1.46 0 2.856-.236 4.163-.65-2.892 15.361-15.83 25.268-3.837 17.115 13.3-9.042 12.544-28.004 12.529-28.352v-.016zm-28.28 0C25.709 5.73 19.954.402 12.854.402 5.754.402 0 5.731 0 12.305c0 6.573 5.755 11.902 12.854 11.902 1.46 0 2.856-.236 4.164-.65-2.893 15.361-15.83 25.268-3.838 17.115 13.3-9.042 12.543-28.004 12.528-28.351v-.016z"/></svg><svg viewBox="0 0 20 20" id="telegram" xmlns="http://www.w3.org/2000/svg"><g clip-path="url(#ia)"><path d="M7.848 12.65l-.331 4.654c.473 0 .678-.203.924-.447l2.219-2.121 4.598 3.367c.844.47 1.438.223 1.665-.776l3.019-14.143c.268-1.247-.45-1.735-1.272-1.43L.928 8.548c-1.21.47-1.192 1.145-.205 1.451l4.535 1.411 10.536-6.592c.496-.329.947-.147.576.181l-8.522 7.653z"/></g><defs><clipPath id="ia"><path d="M0 0h20v20H0z"/></clipPath></defs></svg><svg viewBox="0 0 17 14" id="telegram2" xmlns="http://www.w3.org/2000/svg"><path d="M16.134.496l-2.552 12.921s-.357.896-1.338.466L6.356 9.35l-.028-.013c.796-.717 6.964-6.287 7.233-6.54.418-.39.159-.623-.326-.328l-9.11 5.81L.608 7.092s-.553-.197-.606-.627c-.054-.43.625-.663.625-.663L14.957.156s1.177-.52 1.177.34z"/></svg><svg viewBox="0 0 96 96" id="triangle-play" xmlns="http://www.w3.org/2000/svg"><path d="M94.978 47.647c0 26.114-21.17 47.284-47.284 47.284C21.58 94.931.41 73.761.41 47.647.41 21.533 21.58.363 47.694.363c26.114 0 47.284 21.17 47.284 47.284z"/><path fill-rule="evenodd" clip-rule="evenodd" d="M47.694.363C21.62.363.41 21.575.41 47.647s21.212 47.284 47.284 47.284 47.284-21.212 47.284-47.284S73.766.363 47.694.363zM63.06 49.695L41.783 61.979c-1.574.913-3.546-.227-3.546-2.047V35.363c0-1.82 1.972-2.955 3.546-2.047L63.061 45.6c1.575.913 1.575 3.187 0 4.095z"/><path d="M94.978 47.647c0 26.114-21.17 47.284-47.284 47.284m47.284-47.284c0-26.114-21.17-47.284-47.284-47.284m47.284 47.284c0 26.072-21.212 47.284-47.284 47.284m47.284-47.284C94.978 21.575 73.766.363 47.694.363m0 94.568C21.58 94.931.41 73.761.41 47.647m47.284 47.284C21.62 94.931.41 73.719.41 47.647m0 0C.41 21.533 21.58.363 47.694.363M.41 47.647C.41 21.575 21.622.363 47.694.363M63.06 49.695L41.783 61.979c-1.574.913-3.546-.227-3.546-2.047V35.363c0-1.82 1.972-2.955 3.546-2.047L63.061 45.6c1.575.913 1.575 3.187 0 4.095z"/></svg><svg viewBox="0 0 20 20" id="viber" xmlns="http://www.w3.org/2000/svg"><g clip-path="url(#la)"><path d="M10.68 11.3a.586.586 0 01-.829 0L7.19 8.637a.586.586 0 010-.829l.473-.473-1.39-1.39-1.14 1.139a.984.984 0 000 1.39l4.882 4.882a.976.976 0 00.696.286.98.98 0 00.695-.286l1.139-1.14-1.39-1.39-.474.474z"/><path d="M19.16 7.059c0-1.878-.736-3.65-2.073-4.986A7.009 7.009 0 0012.1 0H7.918a7.009 7.009 0 00-4.986 2.073A7.01 7.01 0 00.86 7.059v3.288c0 1.454.444 2.854 1.284 4.046A7.083 7.083 0 005.04 16.79v1.888c0 .977.546 1.323 1.015 1.323.334 0 .669-.165.994-.49l2.104-2.105H12.1a7.008 7.008 0 004.986-2.073 7.008 7.008 0 002.073-4.986V7.06zm-5.373 5.572l-1.554 1.553a2.14 2.14 0 01-1.524.63 2.14 2.14 0 01-1.523-.63L4.304 9.303a2.158 2.158 0 010-3.048l1.554-1.553a.585.585 0 01.828 0L8.905 6.92a.586.586 0 010 .828l-.473.474 1.834 1.834.473-.474a.586.586 0 01.829 0l2.219 2.22a.585.585 0 010 .828zM9.566 5.688c0-.323.262-.586.586-.586a3.686 3.686 0 013.682 3.682.586.586 0 11-1.172 0 2.513 2.513 0 00-2.51-2.51.586.586 0 01-.586-.586zm6.192 3.682a.586.586 0 01-.586-.586 4.988 4.988 0 00-1.47-3.55 4.988 4.988 0 00-3.55-1.47.586.586 0 010-1.172c1.654 0 3.209.644 4.378 1.814a6.15 6.15 0 011.814 4.378.586.586 0 01-.586.586z"/></g><defs><clipPath id="la"><path d="M0 0h20v20H0z"/></clipPath></defs></svg><svg viewBox="0 0 20 20" id="viber2" xmlns="http://www.w3.org/2000/svg"><path d="M19.16 7.059c0-1.878-.736-3.65-2.073-4.986A7.009 7.009 0 0012.1 0H7.918a7.009 7.009 0 00-4.986 2.073A7.01 7.01 0 00.86 7.059v3.288c0 1.454.444 2.854 1.284 4.046A7.083 7.083 0 005.04 16.79v1.888c0 .977.546 1.323 1.015 1.323.334 0 .669-.165.994-.49l2.104-2.105H12.1a7.008 7.008 0 004.986-2.073 7.008 7.008 0 002.073-4.986V7.06zm-5.373 5.572l-1.554 1.553a2.14 2.14 0 01-1.524.63 2.14 2.14 0 01-1.523-.63L4.304 9.303a2.158 2.158 0 010-3.048l1.554-1.553a.585.585 0 01.828 0L8.905 6.92a.586.586 0 010 .828l-.473.474 1.834 1.834.473-.474a.586.586 0 01.829 0l2.219 2.22a.585.585 0 010 .828zM9.566 5.688c0-.323.262-.586.586-.586a3.686 3.686 0 013.682 3.682.586.586 0 11-1.172 0 2.513 2.513 0 00-2.51-2.51.586.586 0 01-.586-.586zm6.192 3.682a.586.586 0 01-.586-.586 4.988 4.988 0 00-1.47-3.55 4.988 4.988 0 00-3.55-1.47.586.586 0 010-1.172c1.654 0 3.209.644 4.378 1.814a6.15 6.15 0 011.814 4.378.586.586 0 01-.586.586z"/></svg><svg viewBox="0 0 23 14" id="vk" xmlns="http://www.w3.org/2000/svg"><path d="M12.36 14C4.78 14 .457 8.745.277 0h3.797C4.2 6.418 6.998 9.137 9.215 9.698V0h3.575v5.536c2.19-.239 4.49-2.761 5.266-5.536h3.575a10.74 10.74 0 01-1.712 4.003 10.608 10.608 0 01-3.152 2.976 10.968 10.968 0 013.592 2.893A11.116 11.116 0 0122.462 14h-3.935a6.933 6.933 0 00-2.122-3.377 6.809 6.809 0 00-3.615-1.626V14h-.43z"/></svg><svg viewBox="0 0 20 20" id="whatsapp" xmlns="http://www.w3.org/2000/svg"><path d="M10.002 0h-.005C4.485 0 0 4.485 0 10c0 2.188.705 4.215 1.904 5.861L.658 19.576 4.5 18.347A9.913 9.913 0 0010.002 20C15.517 20 20 15.514 20 10S15.516 0 10.002 0zm5.82 14.121c-.242.681-1.2 1.246-1.963 1.412-.523.11-1.205.2-3.503-.753-2.938-1.217-4.831-4.204-4.978-4.397C5.236 10.188 4.19 8.8 4.19 7.366c0-1.435.729-2.133 1.022-2.433.242-.247.64-.36 1.023-.36.124 0 .235.007.335.012.294.013.441.03.635.494.241.581.829 2.016.899 2.163.071.148.142.348.042.542-.094.2-.176.288-.324.458-.147.17-.287.3-.434.483-.135.159-.288.329-.118.623.17.287.758 1.246 1.623 2.016 1.116.993 2.02 1.311 2.345 1.446.24.1.528.076.705-.111.223-.242.5-.642.78-1.035.2-.283.453-.318.718-.218.27.094 1.699.8 1.993.947.293.147.487.217.559.34.07.124.07.706-.172 1.388z"/></svg><svg viewBox="0 0 20 20" id="whatsapp2" xmlns="http://www.w3.org/2000/svg"><path d="M10.002 0h-.005C4.485 0 0 4.485 0 10c0 2.188.705 4.215 1.904 5.861L.658 19.576 4.5 18.347A9.913 9.913 0 0010.002 20C15.517 20 20 15.514 20 10S15.516 0 10.002 0zm5.82 14.121c-.242.681-1.2 1.246-1.963 1.412-.523.11-1.205.2-3.503-.753-2.938-1.217-4.831-4.204-4.978-4.397C5.236 10.188 4.19 8.8 4.19 7.366c0-1.435.729-2.133 1.022-2.433.242-.247.64-.36 1.023-.36.124 0 .235.007.335.012.294.013.441.03.635.494.241.581.829 2.016.899 2.163.071.148.142.348.042.542-.094.2-.176.288-.324.458-.147.17-.287.3-.434.483-.135.159-.288.329-.118.623.17.287.758 1.246 1.623 2.016 1.116.993 2.02 1.311 2.345 1.446.24.1.528.076.705-.111.223-.242.5-.642.78-1.035.2-.283.453-.318.718-.218.27.094 1.699.8 1.993.947.293.147.487.217.559.34.07.124.07.706-.172 1.388z"/></svg></svg>